<svg id="bf9b25a7-2b51-4b48-a375-c1ab405f92c5" data-name="svg8" xmlns="http://www.w3.org/2000/svg" viewBox="0 0 33.57 16.65"><defs><style>.f697dfc6-65a6-49a8-916a-3b9c2833aae2{fill:#4cb648;}.aba74aca-a5cc-4bea-8c8e-2c7ab3105792,.efd97cd1-a208-4476-914e-26cad2e04a75,.f26536da-f88d-4c33-bcdf-3b3fda685e9c,.f697dfc6-65a6-49a8-916a-3b9c2833aae2{fill-rule:evenodd;}.a60d4aed-4264-4d26-a4ed-7a17ef476138,.f26536da-f88d-4c33-bcdf-3b3fda685e9c{fill:#0e4e9f;}.aba74aca-a5cc-4bea-8c8e-2c7ab3105792{fill:#f27124;}.efd97cd1-a208-4476-914e-26cad2e04a75{fill:#fff;}</style></defs><path class="f697dfc6-65a6-49a8-916a-3b9c2833aae2" d="M32.45,2.76l-2,7.51s-.63,3.62-4.14,3.56-5.83,0-5.83,0l1.9-7.4a4.67,4.67,0,0,1,4.21-3.67c2.6.06,5.9,0,5.9,0Z"/><path class="f26536da-f88d-4c33-bcdf-3b3fda685e9c" d="M12,2.76l-2,7.51s-.63,3.62-4.14,3.56-5.83,0-5.83,0l1.9-7.4A4.67,4.67,0,0,1,6.11,2.76c2.6.06,5.9,0,5.9,0Z"/><path class="aba74aca-a5cc-4bea-8c8e-2c7ab3105792" d="M23,0l-3.16,11.5s-.82,5-4.43,5.09-5.83,0-5.83,0l3-12S13.42,0,17.14,0C19.81,0,23,0,23,0Z"/><path class="efd97cd1-a208-4476-914e-26cad2e04a75" d="M10,5.54,5.3,5.5S3.42,5.31,3.06,6.91,1.93,11.1,1.93,11.1a1.8,1.8,0,0,0,1.7-.87c.22-.71.41-1.4.41-1.4l2.6,0A1.93,1.93,0,0,0,8.36,7.59s-3.95,0-3.95,0l.21-.81H8.34s1.41,0,1.7-1.21Z"/><path class="efd97cd1-a208-4476-914e-26cad2e04a75" d="M19.85,6.39a.9.9,0,0,0-.7-.8l-5.31-.07-1.45,5.57s1.87.27,2.06-2.23c0,0,3.41-.06,3.41-.06a1.82,1.82,0,0,0,1.64-.88,2.8,2.8,0,0,0,.35-1.53ZM18.12,7.56H14.73l.3-.88,3.35,0-.26.84Z"/><path class="efd97cd1-a208-4476-914e-26cad2e04a75" d="M24,5.52l5.44,0a1,1,0,0,1,.84,1.22s-2.6,0-2.6,0-.4,1.53-.75,3a1.71,1.71,0,0,1-1.85,1.44s1.13-4.33,1.13-4.33-.87,0-1.46,0A1.08,1.08,0,0,1,24,5.52Z"/><path class="f26536da-f88d-4c33-bcdf-3b3fda685e9c" d="M32,12a1.53,1.53,0,1,1-1.54,1.53A1.53,1.53,0,0,1,32,12Zm0,.22a1.31,1.31,0,1,1-1.32,1.31A1.31,1.31,0,0,1,32,12.18Z"/><path class="a60d4aed-4264-4d26-a4ed-7a17ef476138" d="M31.44,14.26V12.72h.68a.89.89,0,0,1,.32,0,.33.33,0,0,1,.17.14.48.48,0,0,1,.06.24.4.4,0,0,1-.1.28.56.56,0,0,1-.33.14.36.36,0,0,1,.12.08.85.85,0,0,1,.17.2l.27.42h-.26l-.2-.32-.15-.21a.57.57,0,0,0-.1-.11l-.1,0h-.35v.68Zm.2-.86h.44a.61.61,0,0,0,.22,0,.23.23,0,0,0,.12-.09.25.25,0,0,0,0-.14.19.19,0,0,0-.08-.18.34.34,0,0,0-.25-.07h-.49v.51Z"/></svg>