<?xml version="1.0" encoding="utf-8" standalone="no"?>
<!DOCTYPE svg PUBLIC "-//W3C//DTD SVG 1.1//EN"
  "http://www.w3.org/Graphics/SVG/1.1/DTD/svg11.dtd">
<svg xmlns:xlink="http://www.w3.org/1999/xlink" width="864pt" height="432pt" viewBox="0 0 864 432" xmlns="http://www.w3.org/2000/svg" version="1.1">
 <metadata>
  <rdf:RDF xmlns:dc="http://purl.org/dc/elements/1.1/" xmlns:cc="http://creativecommons.org/ns#" xmlns:rdf="http://www.w3.org/1999/02/22-rdf-syntax-ns#">
   <cc:Work>
    <dc:type rdf:resource="http://purl.org/dc/dcmitype/StillImage"/>
    <dc:date>2023-08-16T22:17:18.413506</dc:date>
    <dc:format>image/svg+xml</dc:format>
    <dc:creator>
     <cc:Agent>
      <dc:title>Matplotlib v3.7.0, https://matplotlib.org/</dc:title>
     </cc:Agent>
    </dc:creator>
   </cc:Work>
  </rdf:RDF>
 </metadata>
 <defs>
  <style type="text/css">*{stroke-linejoin: round; stroke-linecap: butt}</style>
 </defs>
 <g id="figure_1">
  <g id="patch_1">
   <path d="M 0 432 
L 864 432 
L 864 0 
L 0 0 
L 0 432 
z
" style="fill: none"/>
  </g>
  <g id="axes_1">
   <g id="patch_2">
    <path d="M 108 384.48 
L 777.6 384.48 
L 777.6 51.84 
L 108 51.84 
L 108 384.48 
z
" style="fill: none"/>
   </g>
   <g id="matplotlib.axis_1">
    <g id="xtick_1">
     <g id="line2d_1">
      <path d="M 140.48595 384.48 
L 140.48595 51.84 
" clip-path="url(#pcbe0d8d728)" style="fill: none; stroke: #808080; stroke-width: 0.5; stroke-linecap: square"/>
     </g>
     <g id="line2d_2">
      <defs>
       <path id="m877c29580a" d="M 0 0 
L 0 3.5 
" style="stroke: #808080; stroke-width: 0.8"/>
      </defs>
      <g>
       <use xlink:href="#m877c29580a" x="140.48595" y="384.48" style="fill: #808080; stroke: #808080; stroke-width: 0.8"/>
      </g>
     </g>
     <g id="text_1">
      <!-- 0 -->
      <g style="fill: #808080" transform="translate(137.3047 399.078438) scale(0.1 -0.1)">
       <defs>
        <path id="DejaVuSans-30" d="M 2034 4250 
Q 1547 4250 1301 3770 
Q 1056 3291 1056 2328 
Q 1056 1369 1301 889 
Q 1547 409 2034 409 
Q 2525 409 2770 889 
Q 3016 1369 3016 2328 
Q 3016 3291 2770 3770 
Q 2525 4250 2034 4250 
z
M 2034 4750 
Q 2819 4750 3233 4129 
Q 3647 3509 3647 2328 
Q 3647 1150 3233 529 
Q 2819 -91 2034 -91 
Q 1250 -91 836 529 
Q 422 1150 422 2328 
Q 422 3509 836 4129 
Q 1250 4750 2034 4750 
z
" transform="scale(0.015625)"/>
       </defs>
       <use xlink:href="#DejaVuSans-30"/>
      </g>
     </g>
    </g>
    <g id="xtick_2">
     <g id="line2d_3">
      <path d="M 242.965289 384.48 
L 242.965289 51.84 
" clip-path="url(#pcbe0d8d728)" style="fill: none; stroke: #808080; stroke-width: 0.5; stroke-linecap: square"/>
     </g>
     <g id="line2d_4">
      <g>
       <use xlink:href="#m877c29580a" x="242.965289" y="384.48" style="fill: #808080; stroke: #808080; stroke-width: 0.8"/>
      </g>
     </g>
     <g id="text_2">
      <!-- 10 -->
      <g style="fill: #808080" transform="translate(236.602789 399.078438) scale(0.1 -0.1)">
       <defs>
        <path id="DejaVuSans-31" d="M 794 531 
L 1825 531 
L 1825 4091 
L 703 3866 
L 703 4441 
L 1819 4666 
L 2450 4666 
L 2450 531 
L 3481 531 
L 3481 0 
L 794 0 
L 794 531 
z
" transform="scale(0.015625)"/>
       </defs>
       <use xlink:href="#DejaVuSans-31"/>
       <use xlink:href="#DejaVuSans-30" x="63.623047"/>
      </g>
     </g>
    </g>
    <g id="xtick_3">
     <g id="line2d_5">
      <path d="M 345.444628 384.48 
L 345.444628 51.84 
" clip-path="url(#pcbe0d8d728)" style="fill: none; stroke: #808080; stroke-width: 0.5; stroke-linecap: square"/>
     </g>
     <g id="line2d_6">
      <g>
       <use xlink:href="#m877c29580a" x="345.444628" y="384.48" style="fill: #808080; stroke: #808080; stroke-width: 0.8"/>
      </g>
     </g>
     <g id="text_3">
      <!-- 20 -->
      <g style="fill: #808080" transform="translate(339.082128 399.078438) scale(0.1 -0.1)">
       <defs>
        <path id="DejaVuSans-32" d="M 1228 531 
L 3431 531 
L 3431 0 
L 469 0 
L 469 531 
Q 828 903 1448 1529 
Q 2069 2156 2228 2338 
Q 2531 2678 2651 2914 
Q 2772 3150 2772 3378 
Q 2772 3750 2511 3984 
Q 2250 4219 1831 4219 
Q 1534 4219 1204 4116 
Q 875 4013 500 3803 
L 500 4441 
Q 881 4594 1212 4672 
Q 1544 4750 1819 4750 
Q 2544 4750 2975 4387 
Q 3406 4025 3406 3419 
Q 3406 3131 3298 2873 
Q 3191 2616 2906 2266 
Q 2828 2175 2409 1742 
Q 1991 1309 1228 531 
z
" transform="scale(0.015625)"/>
       </defs>
       <use xlink:href="#DejaVuSans-32"/>
       <use xlink:href="#DejaVuSans-30" x="63.623047"/>
      </g>
     </g>
    </g>
    <g id="xtick_4">
     <g id="line2d_7">
      <path d="M 447.923967 384.48 
L 447.923967 51.84 
" clip-path="url(#pcbe0d8d728)" style="fill: none; stroke: #808080; stroke-width: 0.5; stroke-linecap: square"/>
     </g>
     <g id="line2d_8">
      <g>
       <use xlink:href="#m877c29580a" x="447.923967" y="384.48" style="fill: #808080; stroke: #808080; stroke-width: 0.8"/>
      </g>
     </g>
     <g id="text_4">
      <!-- 30 -->
      <g style="fill: #808080" transform="translate(441.561467 399.078438) scale(0.1 -0.1)">
       <defs>
        <path id="DejaVuSans-33" d="M 2597 2516 
Q 3050 2419 3304 2112 
Q 3559 1806 3559 1356 
Q 3559 666 3084 287 
Q 2609 -91 1734 -91 
Q 1441 -91 1130 -33 
Q 819 25 488 141 
L 488 750 
Q 750 597 1062 519 
Q 1375 441 1716 441 
Q 2309 441 2620 675 
Q 2931 909 2931 1356 
Q 2931 1769 2642 2001 
Q 2353 2234 1838 2234 
L 1294 2234 
L 1294 2753 
L 1863 2753 
Q 2328 2753 2575 2939 
Q 2822 3125 2822 3475 
Q 2822 3834 2567 4026 
Q 2313 4219 1838 4219 
Q 1578 4219 1281 4162 
Q 984 4106 628 3988 
L 628 4550 
Q 988 4650 1302 4700 
Q 1616 4750 1894 4750 
Q 2613 4750 3031 4423 
Q 3450 4097 3450 3541 
Q 3450 3153 3228 2886 
Q 3006 2619 2597 2516 
z
" transform="scale(0.015625)"/>
       </defs>
       <use xlink:href="#DejaVuSans-33"/>
       <use xlink:href="#DejaVuSans-30" x="63.623047"/>
      </g>
     </g>
    </g>
    <g id="xtick_5">
     <g id="line2d_9">
      <path d="M 550.403306 384.48 
L 550.403306 51.84 
" clip-path="url(#pcbe0d8d728)" style="fill: none; stroke: #808080; stroke-width: 0.5; stroke-linecap: square"/>
     </g>
     <g id="line2d_10">
      <g>
       <use xlink:href="#m877c29580a" x="550.403306" y="384.48" style="fill: #808080; stroke: #808080; stroke-width: 0.8"/>
      </g>
     </g>
     <g id="text_5">
      <!-- 40 -->
      <g style="fill: #808080" transform="translate(544.040806 399.078438) scale(0.1 -0.1)">
       <defs>
        <path id="DejaVuSans-34" d="M 2419 4116 
L 825 1625 
L 2419 1625 
L 2419 4116 
z
M 2253 4666 
L 3047 4666 
L 3047 1625 
L 3713 1625 
L 3713 1100 
L 3047 1100 
L 3047 0 
L 2419 0 
L 2419 1100 
L 313 1100 
L 313 1709 
L 2253 4666 
z
" transform="scale(0.015625)"/>
       </defs>
       <use xlink:href="#DejaVuSans-34"/>
       <use xlink:href="#DejaVuSans-30" x="63.623047"/>
      </g>
     </g>
    </g>
    <g id="xtick_6">
     <g id="line2d_11">
      <path d="M 652.882645 384.48 
L 652.882645 51.84 
" clip-path="url(#pcbe0d8d728)" style="fill: none; stroke: #808080; stroke-width: 0.5; stroke-linecap: square"/>
     </g>
     <g id="line2d_12">
      <g>
       <use xlink:href="#m877c29580a" x="652.882645" y="384.48" style="fill: #808080; stroke: #808080; stroke-width: 0.8"/>
      </g>
     </g>
     <g id="text_6">
      <!-- 50 -->
      <g style="fill: #808080" transform="translate(646.520145 399.078438) scale(0.1 -0.1)">
       <defs>
        <path id="DejaVuSans-35" d="M 691 4666 
L 3169 4666 
L 3169 4134 
L 1269 4134 
L 1269 2991 
Q 1406 3038 1543 3061 
Q 1681 3084 1819 3084 
Q 2600 3084 3056 2656 
Q 3513 2228 3513 1497 
Q 3513 744 3044 326 
Q 2575 -91 1722 -91 
Q 1428 -91 1123 -41 
Q 819 9 494 109 
L 494 744 
Q 775 591 1075 516 
Q 1375 441 1709 441 
Q 2250 441 2565 725 
Q 2881 1009 2881 1497 
Q 2881 1984 2565 2268 
Q 2250 2553 1709 2553 
Q 1456 2553 1204 2497 
Q 953 2441 691 2322 
L 691 4666 
z
" transform="scale(0.015625)"/>
       </defs>
       <use xlink:href="#DejaVuSans-35"/>
       <use xlink:href="#DejaVuSans-30" x="63.623047"/>
      </g>
     </g>
    </g>
    <g id="xtick_7">
     <g id="line2d_13">
      <path d="M 755.361983 384.48 
L 755.361983 51.84 
" clip-path="url(#pcbe0d8d728)" style="fill: none; stroke: #808080; stroke-width: 0.5; stroke-linecap: square"/>
     </g>
     <g id="line2d_14">
      <g>
       <use xlink:href="#m877c29580a" x="755.361983" y="384.48" style="fill: #808080; stroke: #808080; stroke-width: 0.8"/>
      </g>
     </g>
     <g id="text_7">
      <!-- 60 -->
      <g style="fill: #808080" transform="translate(748.999483 399.078438) scale(0.1 -0.1)">
       <defs>
        <path id="DejaVuSans-36" d="M 2113 2584 
Q 1688 2584 1439 2293 
Q 1191 2003 1191 1497 
Q 1191 994 1439 701 
Q 1688 409 2113 409 
Q 2538 409 2786 701 
Q 3034 994 3034 1497 
Q 3034 2003 2786 2293 
Q 2538 2584 2113 2584 
z
M 3366 4563 
L 3366 3988 
Q 3128 4100 2886 4159 
Q 2644 4219 2406 4219 
Q 1781 4219 1451 3797 
Q 1122 3375 1075 2522 
Q 1259 2794 1537 2939 
Q 1816 3084 2150 3084 
Q 2853 3084 3261 2657 
Q 3669 2231 3669 1497 
Q 3669 778 3244 343 
Q 2819 -91 2113 -91 
Q 1303 -91 875 529 
Q 447 1150 447 2328 
Q 447 3434 972 4092 
Q 1497 4750 2381 4750 
Q 2619 4750 2861 4703 
Q 3103 4656 3366 4563 
z
" transform="scale(0.015625)"/>
       </defs>
       <use xlink:href="#DejaVuSans-36"/>
       <use xlink:href="#DejaVuSans-30" x="63.623047"/>
      </g>
     </g>
    </g>
   </g>
   <g id="matplotlib.axis_2">
    <g id="ytick_1">
     <g id="line2d_15">
      <path d="M 108 384.48 
L 777.6 384.48 
" clip-path="url(#pcbe0d8d728)" style="fill: none; stroke: #808080; stroke-width: 0.5; stroke-linecap: square"/>
     </g>
     <g id="line2d_16">
      <defs>
       <path id="m7435f07347" d="M 0 0 
L -3.5 0 
" style="stroke: #808080; stroke-width: 0.8"/>
      </defs>
      <g>
       <use xlink:href="#m7435f07347" x="108" y="384.48" style="fill: #808080; stroke: #808080; stroke-width: 0.8"/>
      </g>
     </g>
     <g id="text_8">
      <!-- 0 -->
      <g style="fill: #808080" transform="translate(94.6375 388.279219) scale(0.1 -0.1)">
       <use xlink:href="#DejaVuSans-30"/>
      </g>
     </g>
    </g>
    <g id="ytick_2">
     <g id="line2d_17">
      <path d="M 108 341.964663 
L 777.6 341.964663 
" clip-path="url(#pcbe0d8d728)" style="fill: none; stroke: #808080; stroke-width: 0.5; stroke-linecap: square"/>
     </g>
     <g id="line2d_18">
      <g>
       <use xlink:href="#m7435f07347" x="108" y="341.964663" style="fill: #808080; stroke: #808080; stroke-width: 0.8"/>
      </g>
     </g>
     <g id="text_9">
      <!-- 5000 -->
      <g style="fill: #808080" transform="translate(75.55 345.763881) scale(0.1 -0.1)">
       <use xlink:href="#DejaVuSans-35"/>
       <use xlink:href="#DejaVuSans-30" x="63.623047"/>
       <use xlink:href="#DejaVuSans-30" x="127.246094"/>
       <use xlink:href="#DejaVuSans-30" x="190.869141"/>
      </g>
     </g>
    </g>
    <g id="ytick_3">
     <g id="line2d_19">
      <path d="M 108 299.449325 
L 777.6 299.449325 
" clip-path="url(#pcbe0d8d728)" style="fill: none; stroke: #808080; stroke-width: 0.5; stroke-linecap: square"/>
     </g>
     <g id="line2d_20">
      <g>
       <use xlink:href="#m7435f07347" x="108" y="299.449325" style="fill: #808080; stroke: #808080; stroke-width: 0.8"/>
      </g>
     </g>
     <g id="text_10">
      <!-- 10000 -->
      <g style="fill: #808080" transform="translate(69.1875 303.248544) scale(0.1 -0.1)">
       <use xlink:href="#DejaVuSans-31"/>
       <use xlink:href="#DejaVuSans-30" x="63.623047"/>
       <use xlink:href="#DejaVuSans-30" x="127.246094"/>
       <use xlink:href="#DejaVuSans-30" x="190.869141"/>
       <use xlink:href="#DejaVuSans-30" x="254.492188"/>
      </g>
     </g>
    </g>
    <g id="ytick_4">
     <g id="line2d_21">
      <path d="M 108 256.933988 
L 777.6 256.933988 
" clip-path="url(#pcbe0d8d728)" style="fill: none; stroke: #808080; stroke-width: 0.5; stroke-linecap: square"/>
     </g>
     <g id="line2d_22">
      <g>
       <use xlink:href="#m7435f07347" x="108" y="256.933988" style="fill: #808080; stroke: #808080; stroke-width: 0.8"/>
      </g>
     </g>
     <g id="text_11">
      <!-- 15000 -->
      <g style="fill: #808080" transform="translate(69.1875 260.733206) scale(0.1 -0.1)">
       <use xlink:href="#DejaVuSans-31"/>
       <use xlink:href="#DejaVuSans-35" x="63.623047"/>
       <use xlink:href="#DejaVuSans-30" x="127.246094"/>
       <use xlink:href="#DejaVuSans-30" x="190.869141"/>
       <use xlink:href="#DejaVuSans-30" x="254.492188"/>
      </g>
     </g>
    </g>
    <g id="ytick_5">
     <g id="line2d_23">
      <path d="M 108 214.41865 
L 777.6 214.41865 
" clip-path="url(#pcbe0d8d728)" style="fill: none; stroke: #808080; stroke-width: 0.5; stroke-linecap: square"/>
     </g>
     <g id="line2d_24">
      <g>
       <use xlink:href="#m7435f07347" x="108" y="214.41865" style="fill: #808080; stroke: #808080; stroke-width: 0.8"/>
      </g>
     </g>
     <g id="text_12">
      <!-- 20000 -->
      <g style="fill: #808080" transform="translate(69.1875 218.217869) scale(0.1 -0.1)">
       <use xlink:href="#DejaVuSans-32"/>
       <use xlink:href="#DejaVuSans-30" x="63.623047"/>
       <use xlink:href="#DejaVuSans-30" x="127.246094"/>
       <use xlink:href="#DejaVuSans-30" x="190.869141"/>
       <use xlink:href="#DejaVuSans-30" x="254.492188"/>
      </g>
     </g>
    </g>
    <g id="ytick_6">
     <g id="line2d_25">
      <path d="M 108 171.903313 
L 777.6 171.903313 
" clip-path="url(#pcbe0d8d728)" style="fill: none; stroke: #808080; stroke-width: 0.5; stroke-linecap: square"/>
     </g>
     <g id="line2d_26">
      <g>
       <use xlink:href="#m7435f07347" x="108" y="171.903313" style="fill: #808080; stroke: #808080; stroke-width: 0.8"/>
      </g>
     </g>
     <g id="text_13">
      <!-- 25000 -->
      <g style="fill: #808080" transform="translate(69.1875 175.702532) scale(0.1 -0.1)">
       <use xlink:href="#DejaVuSans-32"/>
       <use xlink:href="#DejaVuSans-35" x="63.623047"/>
       <use xlink:href="#DejaVuSans-30" x="127.246094"/>
       <use xlink:href="#DejaVuSans-30" x="190.869141"/>
       <use xlink:href="#DejaVuSans-30" x="254.492188"/>
      </g>
     </g>
    </g>
    <g id="ytick_7">
     <g id="line2d_27">
      <path d="M 108 129.387975 
L 777.6 129.387975 
" clip-path="url(#pcbe0d8d728)" style="fill: none; stroke: #808080; stroke-width: 0.5; stroke-linecap: square"/>
     </g>
     <g id="line2d_28">
      <g>
       <use xlink:href="#m7435f07347" x="108" y="129.387975" style="fill: #808080; stroke: #808080; stroke-width: 0.8"/>
      </g>
     </g>
     <g id="text_14">
      <!-- 30000 -->
      <g style="fill: #808080" transform="translate(69.1875 133.187194) scale(0.1 -0.1)">
       <use xlink:href="#DejaVuSans-33"/>
       <use xlink:href="#DejaVuSans-30" x="63.623047"/>
       <use xlink:href="#DejaVuSans-30" x="127.246094"/>
       <use xlink:href="#DejaVuSans-30" x="190.869141"/>
       <use xlink:href="#DejaVuSans-30" x="254.492188"/>
      </g>
     </g>
    </g>
    <g id="ytick_8">
     <g id="line2d_29">
      <path d="M 108 86.872638 
L 777.6 86.872638 
" clip-path="url(#pcbe0d8d728)" style="fill: none; stroke: #808080; stroke-width: 0.5; stroke-linecap: square"/>
     </g>
     <g id="line2d_30">
      <g>
       <use xlink:href="#m7435f07347" x="108" y="86.872638" style="fill: #808080; stroke: #808080; stroke-width: 0.8"/>
      </g>
     </g>
     <g id="text_15">
      <!-- 35000 -->
      <g style="fill: #808080" transform="translate(69.1875 90.671857) scale(0.1 -0.1)">
       <use xlink:href="#DejaVuSans-33"/>
       <use xlink:href="#DejaVuSans-35" x="63.623047"/>
       <use xlink:href="#DejaVuSans-30" x="127.246094"/>
       <use xlink:href="#DejaVuSans-30" x="190.869141"/>
       <use xlink:href="#DejaVuSans-30" x="254.492188"/>
      </g>
     </g>
    </g>
   </g>
   <g id="line2d_31">
    <path d="M 140.48595 149.795337 
L 150.733884 148.094724 
L 160.981818 146.39411 
L 171.229752 145.968957 
L 181.477686 146.39411 
L 191.72562 146.819264 
L 201.973554 140.867117 
L 212.221488 140.01681 
L 222.469421 140.441963 
L 232.717355 138.74135 
L 242.965289 141.717423 
L 253.213223 143.418037 
L 263.461157 142.992883 
L 273.709091 143.84319 
L 283.957025 140.441963 
L 294.204959 137.891043 
L 304.452893 142.142577 
L 314.700826 141.29227 
L 324.94876 136.190429 
L 335.196694 136.615583 
L 345.444628 134.064663 
L 355.692562 135.765276 
L 365.940496 135.765276 
L 376.18843 134.914969 
L 386.436364 129.387975 
L 396.684298 130.238282 
L 406.932231 133.639509 
L 417.180165 135.765276 
L 427.428099 134.064663 
L 437.676033 133.214356 
L 447.923967 134.914969 
L 458.171901 132.789202 
L 468.419835 131.938896 
L 478.667769 126.837055 
L 488.915702 129.387975 
L 499.163636 129.387975 
L 509.41157 130.238282 
L 519.659504 131.938896 
L 529.907438 130.663436 
L 540.155372 130.238282 
L 550.403306 132.364049 
L 560.65124 131.938896 
L 570.899174 130.663436 
L 581.147107 130.238282 
L 591.395041 131.088589 
L 601.642975 134.914969 
L 611.890909 133.639509 
L 622.138843 129.387975 
L 632.386777 125.986748 
L 642.634711 120.459755 
L 652.882645 121.735215 
L 663.130579 120.884908 
L 673.378512 107.28 
L 683.626446 107.28 
L 693.87438 108.130307 
L 704.122314 115.357914 
L 714.370248 111.531534 
L 724.618182 109.83092 
L 734.866116 108.980613 
L 745.11405 109.405767 
" clip-path="url(#pcbe0d8d728)" style="fill: none; stroke: #ffcc33; stroke-width: 1.5; stroke-linecap: square"/>
   </g>
   <g id="line2d_32">
    <path d="M 140.48595 149.948758 
L 150.733884 150.275528 
L 160.981818 149.722796 
L 171.229752 148.960559 
L 181.477686 148.857725 
L 191.72562 149.448854 
L 201.973554 150.134779 
L 212.221488 147.83631 
L 222.469421 146.841368 
L 232.717355 146.935982 
L 242.965289 146.62841 
L 253.213223 147.415342 
L 263.461157 147.708316 
L 273.709091 147.443027 
L 283.957025 147.719925 
L 294.204959 146.298335 
L 304.452893 145.06441 
L 314.700826 146.092717 
L 324.94876 146.201264 
L 335.196694 144.356646 
L 345.444628 143.549137 
L 355.692562 142.125155 
L 365.940496 141.838443 
L 376.18843 141.09552 
L 386.436364 140.136002 
L 396.684298 137.911038 
L 406.932231 137.26356 
L 417.180165 137.097434 
L 427.428099 137.487396 
L 437.676033 136.112208 
L 447.923967 135.171606 
L 458.171901 135.872461 
L 468.419835 134.714417 
L 478.667769 134.092264 
L 488.915702 132.139382 
L 499.163636 131.946818 
L 509.41157 131.841675 
L 519.659504 131.773999 
L 529.907438 131.895251 
L 540.155372 131.305234 
L 550.403306 130.609826 
L 560.65124 131.562469 
L 570.899174 130.688712 
L 581.147107 130.016854 
L 591.395041 129.563451 
L 601.642975 130.236107 
L 611.890909 131.859312 
L 622.138843 131.286667 
L 632.386777 128.78449 
L 642.634711 127.192806 
L 652.882645 124.858946 
L 663.130579 124.248021 
L 673.378512 123.459926 
L 683.626446 119.399329 
L 693.87438 118.590309 
L 704.122314 117.102803 
L 714.370248 117.072644 
L 724.618182 115.278248 
L 734.866116 113.511304 
L 745.11405 111.776229 
" clip-path="url(#pcbe0d8d728)" style="fill: none; stroke: #58d68d; stroke-width: 1.5; stroke-linecap: square"/>
   </g>
   <g id="patch_3">
    <path d="M 138.436364 384.48 
L 142.535537 384.48 
L 142.535537 355.348421 
L 138.436364 355.348421 
z
" clip-path="url(#pcbe0d8d728)" style="fill: #33ccff"/>
   </g>
   <g id="patch_4">
    <path d="M 148.684298 384.48 
L 152.783471 384.48 
L 152.783471 367.72943 
L 148.684298 367.72943 
z
" clip-path="url(#pcbe0d8d728)" style="fill: #33ccff"/>
   </g>
   <g id="patch_5">
    <path d="M 158.932231 384.48 
L 163.031405 384.48 
L 163.031405 357.592306 
L 158.932231 357.592306 
z
" clip-path="url(#pcbe0d8d728)" style="fill: #33ccff"/>
   </g>
   <g id="patch_6">
    <path d="M 169.180165 384.48 
L 173.279339 384.48 
L 173.279339 356.773205 
L 169.180165 356.773205 
z
" clip-path="url(#pcbe0d8d728)" style="fill: #33ccff"/>
   </g>
   <g id="patch_7">
    <path d="M 179.428099 384.48 
L 183.527273 384.48 
L 183.527273 358.964895 
L 179.428099 358.964895 
z
" clip-path="url(#pcbe0d8d728)" style="fill: #33ccff"/>
   </g>
   <g id="patch_8">
    <path d="M 189.676033 384.48 
L 193.775207 384.48 
L 193.775207 361.965127 
L 189.676033 361.965127 
z
" clip-path="url(#pcbe0d8d728)" style="fill: #33ccff"/>
   </g>
   <g id="patch_9">
    <path d="M 199.923967 384.48 
L 204.02314 384.48 
L 204.02314 300.5443 
L 199.923967 300.5443 
z
" clip-path="url(#pcbe0d8d728)" style="fill: #33ccff"/>
   </g>
   <g id="patch_10">
    <path d="M 210.171901 384.48 
L 214.271074 384.48 
L 214.271074 342.697648 
L 210.171901 342.697648 
z
" clip-path="url(#pcbe0d8d728)" style="fill: #33ccff"/>
   </g>
   <g id="patch_11">
    <path d="M 220.419835 384.48 
L 224.519008 384.48 
L 224.519008 334.614824 
L 220.419835 334.614824 
z
" clip-path="url(#pcbe0d8d728)" style="fill: #33ccff"/>
   </g>
   <g id="patch_12">
    <path d="M 230.667769 384.48 
L 234.766942 384.48 
L 234.766942 324.838147 
L 230.667769 324.838147 
z
" clip-path="url(#pcbe0d8d728)" style="fill: #33ccff"/>
   </g>
   <g id="patch_13">
    <path d="M 240.915702 384.48 
L 245.014876 384.48 
L 245.014876 335.939719 
L 240.915702 335.939719 
z
" clip-path="url(#pcbe0d8d728)" style="fill: #33ccff"/>
   </g>
   <g id="patch_14">
    <path d="M 251.163636 384.48 
L 255.26281 384.48 
L 255.26281 327.060002 
L 251.163636 327.060002 
z
" clip-path="url(#pcbe0d8d728)" style="fill: #33ccff"/>
   </g>
   <g id="patch_15">
    <path d="M 261.41157 384.48 
L 265.510744 384.48 
L 265.510744 331.53446 
L 261.41157 331.53446 
z
" clip-path="url(#pcbe0d8d728)" style="fill: #33ccff"/>
   </g>
   <g id="patch_16">
    <path d="M 271.659504 384.48 
L 275.758678 384.48 
L 275.758678 354.28213 
L 271.659504 354.28213 
z
" clip-path="url(#pcbe0d8d728)" style="fill: #33ccff"/>
   </g>
   <g id="patch_17">
    <path d="M 281.907438 384.48 
L 286.006612 384.48 
L 286.006612 305.336489 
L 281.907438 305.336489 
z
" clip-path="url(#pcbe0d8d728)" style="fill: #33ccff"/>
   </g>
   <g id="patch_18">
    <path d="M 292.155372 384.48 
L 296.254545 384.48 
L 296.254545 316.980577 
L 292.155372 316.980577 
z
" clip-path="url(#pcbe0d8d728)" style="fill: #33ccff"/>
   </g>
   <g id="patch_19">
    <path d="M 302.403306 384.48 
L 306.502479 384.48 
L 306.502479 314.640693 
L 302.403306 314.640693 
z
" clip-path="url(#pcbe0d8d728)" style="fill: #33ccff"/>
   </g>
   <g id="patch_20">
    <path d="M 312.65124 384.48 
L 316.750413 384.48 
L 316.750413 352.481879 
L 312.65124 352.481879 
z
" clip-path="url(#pcbe0d8d728)" style="fill: #33ccff"/>
   </g>
   <g id="patch_21">
    <path d="M 322.899174 384.48 
L 326.998347 384.48 
L 326.998347 358.332204 
L 322.899174 358.332204 
z
" clip-path="url(#pcbe0d8d728)" style="fill: #33ccff"/>
   </g>
   <g id="patch_22">
    <path d="M 333.147107 384.48 
L 337.246281 384.48 
L 337.246281 341.534785 
L 333.147107 341.534785 
z
" clip-path="url(#pcbe0d8d728)" style="fill: #33ccff"/>
   </g>
   <g id="patch_23">
    <path d="M 343.395041 384.48 
L 347.494215 384.48 
L 347.494215 336.528859 
L 343.395041 336.528859 
z
" clip-path="url(#pcbe0d8d728)" style="fill: #33ccff"/>
   </g>
   <g id="patch_24">
    <path d="M 353.642975 384.48 
L 357.742149 384.48 
L 357.742149 337.648067 
L 353.642975 337.648067 
z
" clip-path="url(#pcbe0d8d728)" style="fill: #33ccff"/>
   </g>
   <g id="patch_25">
    <path d="M 363.890909 384.48 
L 367.990083 384.48 
L 367.990083 323.756318 
L 363.890909 323.756318 
z
" clip-path="url(#pcbe0d8d728)" style="fill: #33ccff"/>
   </g>
   <g id="patch_26">
    <path d="M 374.138843 384.48 
L 378.238017 384.48 
L 378.238017 350.12284 
L 374.138843 350.12284 
z
" clip-path="url(#pcbe0d8d728)" style="fill: #33ccff"/>
   </g>
   <g id="patch_27">
    <path d="M 384.386777 384.48 
L 388.48595 384.48 
L 388.48595 303.341936 
L 384.386777 303.341936 
z
" clip-path="url(#pcbe0d8d728)" style="fill: #33ccff"/>
   </g>
   <g id="patch_28">
    <path d="M 394.634711 384.48 
L 398.733884 384.48 
L 398.733884 335.604665 
L 394.634711 335.604665 
z
" clip-path="url(#pcbe0d8d728)" style="fill: #33ccff"/>
   </g>
   <g id="patch_29">
    <path d="M 404.882645 384.48 
L 408.981818 384.48 
L 408.981818 331.838146 
L 404.882645 331.838146 
z
" clip-path="url(#pcbe0d8d728)" style="fill: #33ccff"/>
   </g>
   <g id="patch_30">
    <path d="M 415.130579 384.48 
L 419.229752 384.48 
L 419.229752 354.602962 
L 415.130579 354.602962 
z
" clip-path="url(#pcbe0d8d728)" style="fill: #33ccff"/>
   </g>
   <g id="patch_31">
    <path d="M 425.378512 384.48 
L 429.477686 384.48 
L 429.477686 336.502104 
L 425.378512 336.502104 
z
" clip-path="url(#pcbe0d8d728)" style="fill: #33ccff"/>
   </g>
   <g id="patch_32">
    <path d="M 435.626446 384.48 
L 439.72562 384.48 
L 439.72562 350.67879 
L 435.626446 350.67879 
z
" clip-path="url(#pcbe0d8d728)" style="fill: #33ccff"/>
   </g>
   <g id="patch_33">
    <path d="M 445.87438 384.48 
L 449.973554 384.48 
L 449.973554 324.871572 
L 445.87438 324.871572 
z
" clip-path="url(#pcbe0d8d728)" style="fill: #33ccff"/>
   </g>
   <g id="patch_34">
    <path d="M 456.122314 384.48 
L 460.221488 384.48 
L 460.221488 347.701714 
L 456.122314 347.701714 
z
" clip-path="url(#pcbe0d8d728)" style="fill: #33ccff"/>
   </g>
   <g id="patch_35">
    <path d="M 466.370248 384.48 
L 470.469421 384.48 
L 470.469421 319.054708 
L 466.370248 319.054708 
z
" clip-path="url(#pcbe0d8d728)" style="fill: #33ccff"/>
   </g>
   <g id="patch_36">
    <path d="M 476.618182 384.48 
L 480.717355 384.48 
L 480.717355 248.128115 
L 476.618182 248.128115 
z
" clip-path="url(#pcbe0d8d728)" style="fill: #33ccff"/>
   </g>
   <g id="patch_37">
    <path d="M 486.866116 384.48 
L 490.965289 384.48 
L 490.965289 325.152543 
L 486.866116 325.152543 
z
" clip-path="url(#pcbe0d8d728)" style="fill: #33ccff"/>
   </g>
   <g id="patch_38">
    <path d="M 497.11405 384.48 
L 501.213223 384.48 
L 501.213223 334.650024 
L 497.11405 334.650024 
z
" clip-path="url(#pcbe0d8d728)" style="fill: #33ccff"/>
   </g>
   <g id="patch_39">
    <path d="M 507.361983 384.48 
L 511.461157 384.48 
L 511.461157 309.617989 
L 507.361983 309.617989 
z
" clip-path="url(#pcbe0d8d728)" style="fill: #33ccff"/>
   </g>
   <g id="patch_40">
    <path d="M 517.609917 384.48 
L 521.709091 384.48 
L 521.709091 322.631426 
L 517.609917 322.631426 
z
" clip-path="url(#pcbe0d8d728)" style="fill: #33ccff"/>
   </g>
   <g id="patch_41">
    <path d="M 527.857851 384.48 
L 531.957025 384.48 
L 531.957025 341.520637 
L 527.857851 341.520637 
z
" clip-path="url(#pcbe0d8d728)" style="fill: #33ccff"/>
   </g>
   <g id="patch_42">
    <path d="M 538.105785 384.48 
L 542.204959 384.48 
L 542.204959 321.141775 
L 538.105785 321.141775 
z
" clip-path="url(#pcbe0d8d728)" style="fill: #33ccff"/>
   </g>
   <g id="patch_43">
    <path d="M 548.353719 384.48 
L 552.452893 384.48 
L 552.452893 341.311522 
L 548.353719 341.311522 
z
" clip-path="url(#pcbe0d8d728)" style="fill: #33ccff"/>
   </g>
   <g id="patch_44">
    <path d="M 558.601653 384.48 
L 562.700826 384.48 
L 562.700826 332.447916 
L 558.601653 332.447916 
z
" clip-path="url(#pcbe0d8d728)" style="fill: #33ccff"/>
   </g>
   <g id="patch_45">
    <path d="M 568.849587 384.48 
L 572.94876 384.48 
L 572.94876 335.946737 
L 568.849587 335.946737 
z
" clip-path="url(#pcbe0d8d728)" style="fill: #33ccff"/>
   </g>
   <g id="patch_46">
    <path d="M 579.097521 384.48 
L 583.196694 384.48 
L 583.196694 327.228619 
L 579.097521 327.228619 
z
" clip-path="url(#pcbe0d8d728)" style="fill: #33ccff"/>
   </g>
   <g id="patch_47">
    <path d="M 589.345455 384.48 
L 593.444628 384.48 
L 593.444628 332.384806 
L 589.345455 332.384806 
z
" clip-path="url(#pcbe0d8d728)" style="fill: #33ccff"/>
   </g>
   <g id="patch_48">
    <path d="M 599.593388 384.48 
L 603.692562 384.48 
L 603.692562 310.044816 
L 599.593388 310.044816 
z
" clip-path="url(#pcbe0d8d728)" style="fill: #33ccff"/>
   </g>
   <g id="patch_49">
    <path d="M 609.841322 384.48 
L 613.940496 384.48 
L 613.940496 335.425498 
L 609.841322 335.425498 
z
" clip-path="url(#pcbe0d8d728)" style="fill: #33ccff"/>
   </g>
   <g id="patch_50">
    <path d="M 620.089256 384.48 
L 624.18843 384.48 
L 624.18843 330.292346 
L 620.089256 330.292346 
z
" clip-path="url(#pcbe0d8d728)" style="fill: #33ccff"/>
   </g>
   <g id="patch_51">
    <path d="M 630.33719 384.48 
L 634.436364 384.48 
L 634.436364 250.62508 
L 630.33719 250.62508 
z
" clip-path="url(#pcbe0d8d728)" style="fill: #33ccff"/>
   </g>
   <g id="patch_52">
    <path d="M 640.585124 384.48 
L 644.684298 384.48 
L 644.684298 259.127863 
L 640.585124 259.127863 
z
" clip-path="url(#pcbe0d8d728)" style="fill: #33ccff"/>
   </g>
   <g id="patch_53">
    <path d="M 650.833058 384.48 
L 654.932231 384.48 
L 654.932231 308.571727 
L 650.833058 308.571727 
z
" clip-path="url(#pcbe0d8d728)" style="fill: #33ccff"/>
   </g>
   <g id="patch_54">
    <path d="M 661.080992 384.48 
L 665.180165 384.48 
L 665.180165 313.462141 
L 661.080992 313.462141 
z
" clip-path="url(#pcbe0d8d728)" style="fill: #33ccff"/>
   </g>
   <g id="patch_55">
    <path d="M 671.328926 384.48 
L 675.428099 384.48 
L 675.428099 262.280582 
L 671.328926 262.280582 
z
" clip-path="url(#pcbe0d8d728)" style="fill: #33ccff"/>
   </g>
   <g id="patch_56">
    <path d="M 681.57686 384.48 
L 685.676033 384.48 
L 685.676033 302.102397 
L 681.57686 302.102397 
z
" clip-path="url(#pcbe0d8d728)" style="fill: #33ccff"/>
   </g>
   <g id="patch_57">
    <path d="M 691.824793 384.48 
L 695.923967 384.48 
L 695.923967 309.174375 
L 691.824793 309.174375 
z
" clip-path="url(#pcbe0d8d728)" style="fill: #33ccff"/>
   </g>
   <g id="patch_58">
    <path d="M 702.072727 384.48 
L 706.171901 384.48 
L 706.171901 309.341038 
L 702.072727 309.341038 
z
" clip-path="url(#pcbe0d8d728)" style="fill: #33ccff"/>
   </g>
   <g id="patch_59">
    <path d="M 712.320661 384.48 
L 716.419835 384.48 
L 716.419835 319.55356 
L 712.320661 319.55356 
z
" clip-path="url(#pcbe0d8d728)" style="fill: #33ccff"/>
   </g>
   <g id="patch_60">
    <path d="M 722.568595 384.48 
L 726.667769 384.48 
L 726.667769 324.6151 
L 722.568595 324.6151 
z
" clip-path="url(#pcbe0d8d728)" style="fill: #33ccff"/>
   </g>
   <g id="patch_61">
    <path d="M 732.816529 384.48 
L 736.915702 384.48 
L 736.915702 335.227412 
L 732.816529 335.227412 
z
" clip-path="url(#pcbe0d8d728)" style="fill: #33ccff"/>
   </g>
   <g id="patch_62">
    <path d="M 743.064463 384.48 
L 747.163636 384.48 
L 747.163636 324.597091 
L 743.064463 324.597091 
z
" clip-path="url(#pcbe0d8d728)" style="fill: #33ccff"/>
   </g>
   <g id="patch_63">
    <path d="M 108 384.48 
L 108 51.84 
" style="fill: none; stroke: #6699ff; stroke-width: 0.8; stroke-linejoin: miter; stroke-linecap: square"/>
   </g>
   <g id="patch_64">
    <path d="M 108 384.48 
L 777.6 384.48 
" style="fill: none; stroke: #6699ff; stroke-width: 0.8; stroke-linejoin: miter; stroke-linecap: square"/>
   </g>
   <g id="legend_1">
    <g id="patch_65">
     <path d="M 701.553125 379.48 
L 770.6 379.48 
Q 772.6 379.48 772.6 377.48 
L 772.6 334.445625 
Q 772.6 332.445625 770.6 332.445625 
L 701.553125 332.445625 
Q 699.553125 332.445625 699.553125 334.445625 
L 699.553125 377.48 
Q 699.553125 379.48 701.553125 379.48 
z
" style="fill: #ffffff; opacity: 0.8; stroke: #cccccc; stroke-linejoin: miter"/>
    </g>
    <g id="line2d_33">
     <path d="M 703.553125 340.544062 
L 713.553125 340.544062 
L 723.553125 340.544062 
" style="fill: none; stroke: #ffcc33; stroke-width: 1.5; stroke-linecap: square"/>
    </g>
    <g id="text_16">
     <!-- real -->
     <g transform="translate(731.553125 344.044062) scale(0.1 -0.1)">
      <defs>
       <path id="DejaVuSans-72" d="M 2631 2963 
Q 2534 3019 2420 3045 
Q 2306 3072 2169 3072 
Q 1681 3072 1420 2755 
Q 1159 2438 1159 1844 
L 1159 0 
L 581 0 
L 581 3500 
L 1159 3500 
L 1159 2956 
Q 1341 3275 1631 3429 
Q 1922 3584 2338 3584 
Q 2397 3584 2469 3576 
Q 2541 3569 2628 3553 
L 2631 2963 
z
" transform="scale(0.015625)"/>
       <path id="DejaVuSans-65" d="M 3597 1894 
L 3597 1613 
L 953 1613 
Q 991 1019 1311 708 
Q 1631 397 2203 397 
Q 2534 397 2845 478 
Q 3156 559 3463 722 
L 3463 178 
Q 3153 47 2828 -22 
Q 2503 -91 2169 -91 
Q 1331 -91 842 396 
Q 353 884 353 1716 
Q 353 2575 817 3079 
Q 1281 3584 2069 3584 
Q 2775 3584 3186 3129 
Q 3597 2675 3597 1894 
z
M 3022 2063 
Q 3016 2534 2758 2815 
Q 2500 3097 2075 3097 
Q 1594 3097 1305 2825 
Q 1016 2553 972 2059 
L 3022 2063 
z
" transform="scale(0.015625)"/>
       <path id="DejaVuSans-61" d="M 2194 1759 
Q 1497 1759 1228 1600 
Q 959 1441 959 1056 
Q 959 750 1161 570 
Q 1363 391 1709 391 
Q 2188 391 2477 730 
Q 2766 1069 2766 1631 
L 2766 1759 
L 2194 1759 
z
M 3341 1997 
L 3341 0 
L 2766 0 
L 2766 531 
Q 2569 213 2275 61 
Q 1981 -91 1556 -91 
Q 1019 -91 701 211 
Q 384 513 384 1019 
Q 384 1609 779 1909 
Q 1175 2209 1959 2209 
L 2766 2209 
L 2766 2266 
Q 2766 2663 2505 2880 
Q 2244 3097 1772 3097 
Q 1472 3097 1187 3025 
Q 903 2953 641 2809 
L 641 3341 
Q 956 3463 1253 3523 
Q 1550 3584 1831 3584 
Q 2591 3584 2966 3190 
Q 3341 2797 3341 1997 
z
" transform="scale(0.015625)"/>
       <path id="DejaVuSans-6c" d="M 603 4863 
L 1178 4863 
L 1178 0 
L 603 0 
L 603 4863 
z
" transform="scale(0.015625)"/>
      </defs>
      <use xlink:href="#DejaVuSans-72"/>
      <use xlink:href="#DejaVuSans-65" x="38.863281"/>
      <use xlink:href="#DejaVuSans-61" x="100.386719"/>
      <use xlink:href="#DejaVuSans-6c" x="161.666016"/>
     </g>
    </g>
    <g id="line2d_34">
     <path d="M 703.553125 355.222188 
L 713.553125 355.222188 
L 723.553125 355.222188 
" style="fill: none; stroke: #58d68d; stroke-width: 1.5; stroke-linecap: square"/>
    </g>
    <g id="text_17">
     <!-- predict -->
     <g transform="translate(731.553125 358.722188) scale(0.1 -0.1)">
      <defs>
       <path id="DejaVuSans-70" d="M 1159 525 
L 1159 -1331 
L 581 -1331 
L 581 3500 
L 1159 3500 
L 1159 2969 
Q 1341 3281 1617 3432 
Q 1894 3584 2278 3584 
Q 2916 3584 3314 3078 
Q 3713 2572 3713 1747 
Q 3713 922 3314 415 
Q 2916 -91 2278 -91 
Q 1894 -91 1617 61 
Q 1341 213 1159 525 
z
M 3116 1747 
Q 3116 2381 2855 2742 
Q 2594 3103 2138 3103 
Q 1681 3103 1420 2742 
Q 1159 2381 1159 1747 
Q 1159 1113 1420 752 
Q 1681 391 2138 391 
Q 2594 391 2855 752 
Q 3116 1113 3116 1747 
z
" transform="scale(0.015625)"/>
       <path id="DejaVuSans-64" d="M 2906 2969 
L 2906 4863 
L 3481 4863 
L 3481 0 
L 2906 0 
L 2906 525 
Q 2725 213 2448 61 
Q 2172 -91 1784 -91 
Q 1150 -91 751 415 
Q 353 922 353 1747 
Q 353 2572 751 3078 
Q 1150 3584 1784 3584 
Q 2172 3584 2448 3432 
Q 2725 3281 2906 2969 
z
M 947 1747 
Q 947 1113 1208 752 
Q 1469 391 1925 391 
Q 2381 391 2643 752 
Q 2906 1113 2906 1747 
Q 2906 2381 2643 2742 
Q 2381 3103 1925 3103 
Q 1469 3103 1208 2742 
Q 947 2381 947 1747 
z
" transform="scale(0.015625)"/>
       <path id="DejaVuSans-69" d="M 603 3500 
L 1178 3500 
L 1178 0 
L 603 0 
L 603 3500 
z
M 603 4863 
L 1178 4863 
L 1178 4134 
L 603 4134 
L 603 4863 
z
" transform="scale(0.015625)"/>
       <path id="DejaVuSans-63" d="M 3122 3366 
L 3122 2828 
Q 2878 2963 2633 3030 
Q 2388 3097 2138 3097 
Q 1578 3097 1268 2742 
Q 959 2388 959 1747 
Q 959 1106 1268 751 
Q 1578 397 2138 397 
Q 2388 397 2633 464 
Q 2878 531 3122 666 
L 3122 134 
Q 2881 22 2623 -34 
Q 2366 -91 2075 -91 
Q 1284 -91 818 406 
Q 353 903 353 1747 
Q 353 2603 823 3093 
Q 1294 3584 2113 3584 
Q 2378 3584 2631 3529 
Q 2884 3475 3122 3366 
z
" transform="scale(0.015625)"/>
       <path id="DejaVuSans-74" d="M 1172 4494 
L 1172 3500 
L 2356 3500 
L 2356 3053 
L 1172 3053 
L 1172 1153 
Q 1172 725 1289 603 
Q 1406 481 1766 481 
L 2356 481 
L 2356 0 
L 1766 0 
Q 1100 0 847 248 
Q 594 497 594 1153 
L 594 3053 
L 172 3053 
L 172 3500 
L 594 3500 
L 594 4494 
L 1172 4494 
z
" transform="scale(0.015625)"/>
      </defs>
      <use xlink:href="#DejaVuSans-70"/>
      <use xlink:href="#DejaVuSans-72" x="63.476562"/>
      <use xlink:href="#DejaVuSans-65" x="102.339844"/>
      <use xlink:href="#DejaVuSans-64" x="163.863281"/>
      <use xlink:href="#DejaVuSans-69" x="227.339844"/>
      <use xlink:href="#DejaVuSans-63" x="255.123047"/>
      <use xlink:href="#DejaVuSans-74" x="310.103516"/>
     </g>
    </g>
    <g id="patch_66">
     <path d="M 703.553125 373.400312 
L 723.553125 373.400312 
L 723.553125 366.400312 
L 703.553125 366.400312 
z
" style="fill: #33ccff"/>
    </g>
    <g id="text_18">
     <!-- volume -->
     <g transform="translate(731.553125 373.400312) scale(0.1 -0.1)">
      <defs>
       <path id="DejaVuSans-76" d="M 191 3500 
L 800 3500 
L 1894 563 
L 2988 3500 
L 3597 3500 
L 2284 0 
L 1503 0 
L 191 3500 
z
" transform="scale(0.015625)"/>
       <path id="DejaVuSans-6f" d="M 1959 3097 
Q 1497 3097 1228 2736 
Q 959 2375 959 1747 
Q 959 1119 1226 758 
Q 1494 397 1959 397 
Q 2419 397 2687 759 
Q 2956 1122 2956 1747 
Q 2956 2369 2687 2733 
Q 2419 3097 1959 3097 
z
M 1959 3584 
Q 2709 3584 3137 3096 
Q 3566 2609 3566 1747 
Q 3566 888 3137 398 
Q 2709 -91 1959 -91 
Q 1206 -91 779 398 
Q 353 888 353 1747 
Q 353 2609 779 3096 
Q 1206 3584 1959 3584 
z
" transform="scale(0.015625)"/>
       <path id="DejaVuSans-75" d="M 544 1381 
L 544 3500 
L 1119 3500 
L 1119 1403 
Q 1119 906 1312 657 
Q 1506 409 1894 409 
Q 2359 409 2629 706 
Q 2900 1003 2900 1516 
L 2900 3500 
L 3475 3500 
L 3475 0 
L 2900 0 
L 2900 538 
Q 2691 219 2414 64 
Q 2138 -91 1772 -91 
Q 1169 -91 856 284 
Q 544 659 544 1381 
z
M 1991 3584 
L 1991 3584 
z
" transform="scale(0.015625)"/>
       <path id="DejaVuSans-6d" d="M 3328 2828 
Q 3544 3216 3844 3400 
Q 4144 3584 4550 3584 
Q 5097 3584 5394 3201 
Q 5691 2819 5691 2113 
L 5691 0 
L 5113 0 
L 5113 2094 
Q 5113 2597 4934 2840 
Q 4756 3084 4391 3084 
Q 3944 3084 3684 2787 
Q 3425 2491 3425 1978 
L 3425 0 
L 2847 0 
L 2847 2094 
Q 2847 2600 2669 2842 
Q 2491 3084 2119 3084 
Q 1678 3084 1418 2786 
Q 1159 2488 1159 1978 
L 1159 0 
L 581 0 
L 581 3500 
L 1159 3500 
L 1159 2956 
Q 1356 3278 1631 3431 
Q 1906 3584 2284 3584 
Q 2666 3584 2933 3390 
Q 3200 3197 3328 2828 
z
" transform="scale(0.015625)"/>
      </defs>
      <use xlink:href="#DejaVuSans-76"/>
      <use xlink:href="#DejaVuSans-6f" x="59.179688"/>
      <use xlink:href="#DejaVuSans-6c" x="120.361328"/>
      <use xlink:href="#DejaVuSans-75" x="148.144531"/>
      <use xlink:href="#DejaVuSans-6d" x="211.523438"/>
      <use xlink:href="#DejaVuSans-65" x="308.935547"/>
     </g>
    </g>
   </g>
  </g>
 </g>
 <defs>
  <clipPath id="pcbe0d8d728">
   <rect x="108" y="51.84" width="669.6" height="332.64"/>
  </clipPath>
 </defs>
</svg>
