<?xml version="1.0" encoding="utf-8" standalone="no"?>
<!DOCTYPE svg PUBLIC "-//W3C//DTD SVG 1.1//EN"
  "http://www.w3.org/Graphics/SVG/1.1/DTD/svg11.dtd">
<svg xmlns:xlink="http://www.w3.org/1999/xlink" width="864pt" height="432pt" viewBox="0 0 864 432" xmlns="http://www.w3.org/2000/svg" version="1.1">
 <metadata>
  <rdf:RDF xmlns:dc="http://purl.org/dc/elements/1.1/" xmlns:cc="http://creativecommons.org/ns#" xmlns:rdf="http://www.w3.org/1999/02/22-rdf-syntax-ns#">
   <cc:Work>
    <dc:type rdf:resource="http://purl.org/dc/dcmitype/StillImage"/>
    <dc:date>2023-07-10T10:49:59.888550</dc:date>
    <dc:format>image/svg+xml</dc:format>
    <dc:creator>
     <cc:Agent>
      <dc:title>Matplotlib v3.7.0, https://matplotlib.org/</dc:title>
     </cc:Agent>
    </dc:creator>
   </cc:Work>
  </rdf:RDF>
 </metadata>
 <defs>
  <style type="text/css">*{stroke-linejoin: round; stroke-linecap: butt}</style>
 </defs>
 <g id="figure_1">
  <g id="patch_1">
   <path d="M 0 432 
L 864 432 
L 864 0 
L 0 0 
L 0 432 
z
" style="fill: none"/>
  </g>
  <g id="axes_1">
   <g id="patch_2">
    <path d="M 108 384.48 
L 777.6 384.48 
L 777.6 51.84 
L 108 51.84 
L 108 384.48 
z
" style="fill: none"/>
   </g>
   <g id="matplotlib.axis_1">
    <g id="xtick_1">
     <g id="line2d_1">
      <path d="M 140.48595 384.48 
L 140.48595 51.84 
" clip-path="url(#pa5dc1d3ad2)" style="fill: none; stroke: #808080; stroke-width: 0.5; stroke-linecap: square"/>
     </g>
     <g id="line2d_2">
      <defs>
       <path id="m1298083546" d="M 0 0 
L 0 3.5 
" style="stroke: #808080; stroke-width: 0.8"/>
      </defs>
      <g>
       <use xlink:href="#m1298083546" x="140.48595" y="384.48" style="fill: #808080; stroke: #808080; stroke-width: 0.8"/>
      </g>
     </g>
     <g id="text_1">
      <!-- 0 -->
      <g style="fill: #808080" transform="translate(137.3047 399.078438) scale(0.1 -0.1)">
       <defs>
        <path id="DejaVuSans-30" d="M 2034 4250 
Q 1547 4250 1301 3770 
Q 1056 3291 1056 2328 
Q 1056 1369 1301 889 
Q 1547 409 2034 409 
Q 2525 409 2770 889 
Q 3016 1369 3016 2328 
Q 3016 3291 2770 3770 
Q 2525 4250 2034 4250 
z
M 2034 4750 
Q 2819 4750 3233 4129 
Q 3647 3509 3647 2328 
Q 3647 1150 3233 529 
Q 2819 -91 2034 -91 
Q 1250 -91 836 529 
Q 422 1150 422 2328 
Q 422 3509 836 4129 
Q 1250 4750 2034 4750 
z
" transform="scale(0.015625)"/>
       </defs>
       <use xlink:href="#DejaVuSans-30"/>
      </g>
     </g>
    </g>
    <g id="xtick_2">
     <g id="line2d_3">
      <path d="M 242.965289 384.48 
L 242.965289 51.84 
" clip-path="url(#pa5dc1d3ad2)" style="fill: none; stroke: #808080; stroke-width: 0.5; stroke-linecap: square"/>
     </g>
     <g id="line2d_4">
      <g>
       <use xlink:href="#m1298083546" x="242.965289" y="384.48" style="fill: #808080; stroke: #808080; stroke-width: 0.8"/>
      </g>
     </g>
     <g id="text_2">
      <!-- 10 -->
      <g style="fill: #808080" transform="translate(236.602789 399.078438) scale(0.1 -0.1)">
       <defs>
        <path id="DejaVuSans-31" d="M 794 531 
L 1825 531 
L 1825 4091 
L 703 3866 
L 703 4441 
L 1819 4666 
L 2450 4666 
L 2450 531 
L 3481 531 
L 3481 0 
L 794 0 
L 794 531 
z
" transform="scale(0.015625)"/>
       </defs>
       <use xlink:href="#DejaVuSans-31"/>
       <use xlink:href="#DejaVuSans-30" x="63.623047"/>
      </g>
     </g>
    </g>
    <g id="xtick_3">
     <g id="line2d_5">
      <path d="M 345.444628 384.48 
L 345.444628 51.84 
" clip-path="url(#pa5dc1d3ad2)" style="fill: none; stroke: #808080; stroke-width: 0.5; stroke-linecap: square"/>
     </g>
     <g id="line2d_6">
      <g>
       <use xlink:href="#m1298083546" x="345.444628" y="384.48" style="fill: #808080; stroke: #808080; stroke-width: 0.8"/>
      </g>
     </g>
     <g id="text_3">
      <!-- 20 -->
      <g style="fill: #808080" transform="translate(339.082128 399.078438) scale(0.1 -0.1)">
       <defs>
        <path id="DejaVuSans-32" d="M 1228 531 
L 3431 531 
L 3431 0 
L 469 0 
L 469 531 
Q 828 903 1448 1529 
Q 2069 2156 2228 2338 
Q 2531 2678 2651 2914 
Q 2772 3150 2772 3378 
Q 2772 3750 2511 3984 
Q 2250 4219 1831 4219 
Q 1534 4219 1204 4116 
Q 875 4013 500 3803 
L 500 4441 
Q 881 4594 1212 4672 
Q 1544 4750 1819 4750 
Q 2544 4750 2975 4387 
Q 3406 4025 3406 3419 
Q 3406 3131 3298 2873 
Q 3191 2616 2906 2266 
Q 2828 2175 2409 1742 
Q 1991 1309 1228 531 
z
" transform="scale(0.015625)"/>
       </defs>
       <use xlink:href="#DejaVuSans-32"/>
       <use xlink:href="#DejaVuSans-30" x="63.623047"/>
      </g>
     </g>
    </g>
    <g id="xtick_4">
     <g id="line2d_7">
      <path d="M 447.923967 384.48 
L 447.923967 51.84 
" clip-path="url(#pa5dc1d3ad2)" style="fill: none; stroke: #808080; stroke-width: 0.5; stroke-linecap: square"/>
     </g>
     <g id="line2d_8">
      <g>
       <use xlink:href="#m1298083546" x="447.923967" y="384.48" style="fill: #808080; stroke: #808080; stroke-width: 0.8"/>
      </g>
     </g>
     <g id="text_4">
      <!-- 30 -->
      <g style="fill: #808080" transform="translate(441.561467 399.078438) scale(0.1 -0.1)">
       <defs>
        <path id="DejaVuSans-33" d="M 2597 2516 
Q 3050 2419 3304 2112 
Q 3559 1806 3559 1356 
Q 3559 666 3084 287 
Q 2609 -91 1734 -91 
Q 1441 -91 1130 -33 
Q 819 25 488 141 
L 488 750 
Q 750 597 1062 519 
Q 1375 441 1716 441 
Q 2309 441 2620 675 
Q 2931 909 2931 1356 
Q 2931 1769 2642 2001 
Q 2353 2234 1838 2234 
L 1294 2234 
L 1294 2753 
L 1863 2753 
Q 2328 2753 2575 2939 
Q 2822 3125 2822 3475 
Q 2822 3834 2567 4026 
Q 2313 4219 1838 4219 
Q 1578 4219 1281 4162 
Q 984 4106 628 3988 
L 628 4550 
Q 988 4650 1302 4700 
Q 1616 4750 1894 4750 
Q 2613 4750 3031 4423 
Q 3450 4097 3450 3541 
Q 3450 3153 3228 2886 
Q 3006 2619 2597 2516 
z
" transform="scale(0.015625)"/>
       </defs>
       <use xlink:href="#DejaVuSans-33"/>
       <use xlink:href="#DejaVuSans-30" x="63.623047"/>
      </g>
     </g>
    </g>
    <g id="xtick_5">
     <g id="line2d_9">
      <path d="M 550.403306 384.48 
L 550.403306 51.84 
" clip-path="url(#pa5dc1d3ad2)" style="fill: none; stroke: #808080; stroke-width: 0.5; stroke-linecap: square"/>
     </g>
     <g id="line2d_10">
      <g>
       <use xlink:href="#m1298083546" x="550.403306" y="384.48" style="fill: #808080; stroke: #808080; stroke-width: 0.8"/>
      </g>
     </g>
     <g id="text_5">
      <!-- 40 -->
      <g style="fill: #808080" transform="translate(544.040806 399.078438) scale(0.1 -0.1)">
       <defs>
        <path id="DejaVuSans-34" d="M 2419 4116 
L 825 1625 
L 2419 1625 
L 2419 4116 
z
M 2253 4666 
L 3047 4666 
L 3047 1625 
L 3713 1625 
L 3713 1100 
L 3047 1100 
L 3047 0 
L 2419 0 
L 2419 1100 
L 313 1100 
L 313 1709 
L 2253 4666 
z
" transform="scale(0.015625)"/>
       </defs>
       <use xlink:href="#DejaVuSans-34"/>
       <use xlink:href="#DejaVuSans-30" x="63.623047"/>
      </g>
     </g>
    </g>
    <g id="xtick_6">
     <g id="line2d_11">
      <path d="M 652.882645 384.48 
L 652.882645 51.84 
" clip-path="url(#pa5dc1d3ad2)" style="fill: none; stroke: #808080; stroke-width: 0.5; stroke-linecap: square"/>
     </g>
     <g id="line2d_12">
      <g>
       <use xlink:href="#m1298083546" x="652.882645" y="384.48" style="fill: #808080; stroke: #808080; stroke-width: 0.8"/>
      </g>
     </g>
     <g id="text_6">
      <!-- 50 -->
      <g style="fill: #808080" transform="translate(646.520145 399.078438) scale(0.1 -0.1)">
       <defs>
        <path id="DejaVuSans-35" d="M 691 4666 
L 3169 4666 
L 3169 4134 
L 1269 4134 
L 1269 2991 
Q 1406 3038 1543 3061 
Q 1681 3084 1819 3084 
Q 2600 3084 3056 2656 
Q 3513 2228 3513 1497 
Q 3513 744 3044 326 
Q 2575 -91 1722 -91 
Q 1428 -91 1123 -41 
Q 819 9 494 109 
L 494 744 
Q 775 591 1075 516 
Q 1375 441 1709 441 
Q 2250 441 2565 725 
Q 2881 1009 2881 1497 
Q 2881 1984 2565 2268 
Q 2250 2553 1709 2553 
Q 1456 2553 1204 2497 
Q 953 2441 691 2322 
L 691 4666 
z
" transform="scale(0.015625)"/>
       </defs>
       <use xlink:href="#DejaVuSans-35"/>
       <use xlink:href="#DejaVuSans-30" x="63.623047"/>
      </g>
     </g>
    </g>
    <g id="xtick_7">
     <g id="line2d_13">
      <path d="M 755.361983 384.48 
L 755.361983 51.84 
" clip-path="url(#pa5dc1d3ad2)" style="fill: none; stroke: #808080; stroke-width: 0.5; stroke-linecap: square"/>
     </g>
     <g id="line2d_14">
      <g>
       <use xlink:href="#m1298083546" x="755.361983" y="384.48" style="fill: #808080; stroke: #808080; stroke-width: 0.8"/>
      </g>
     </g>
     <g id="text_7">
      <!-- 60 -->
      <g style="fill: #808080" transform="translate(748.999483 399.078438) scale(0.1 -0.1)">
       <defs>
        <path id="DejaVuSans-36" d="M 2113 2584 
Q 1688 2584 1439 2293 
Q 1191 2003 1191 1497 
Q 1191 994 1439 701 
Q 1688 409 2113 409 
Q 2538 409 2786 701 
Q 3034 994 3034 1497 
Q 3034 2003 2786 2293 
Q 2538 2584 2113 2584 
z
M 3366 4563 
L 3366 3988 
Q 3128 4100 2886 4159 
Q 2644 4219 2406 4219 
Q 1781 4219 1451 3797 
Q 1122 3375 1075 2522 
Q 1259 2794 1537 2939 
Q 1816 3084 2150 3084 
Q 2853 3084 3261 2657 
Q 3669 2231 3669 1497 
Q 3669 778 3244 343 
Q 2819 -91 2113 -91 
Q 1303 -91 875 529 
Q 447 1150 447 2328 
Q 447 3434 972 4092 
Q 1497 4750 2381 4750 
Q 2619 4750 2861 4703 
Q 3103 4656 3366 4563 
z
" transform="scale(0.015625)"/>
       </defs>
       <use xlink:href="#DejaVuSans-36"/>
       <use xlink:href="#DejaVuSans-30" x="63.623047"/>
      </g>
     </g>
    </g>
   </g>
   <g id="matplotlib.axis_2">
    <g id="ytick_1">
     <g id="line2d_15">
      <path d="M 108 384.48 
L 777.6 384.48 
" clip-path="url(#pa5dc1d3ad2)" style="fill: none; stroke: #808080; stroke-width: 0.5; stroke-linecap: square"/>
     </g>
     <g id="line2d_16">
      <defs>
       <path id="m191987ae6c" d="M 0 0 
L -3.5 0 
" style="stroke: #808080; stroke-width: 0.8"/>
      </defs>
      <g>
       <use xlink:href="#m191987ae6c" x="108" y="384.48" style="fill: #808080; stroke: #808080; stroke-width: 0.8"/>
      </g>
     </g>
     <g id="text_8">
      <!-- 0 -->
      <g style="fill: #808080" transform="translate(94.6375 388.279219) scale(0.1 -0.1)">
       <use xlink:href="#DejaVuSans-30"/>
      </g>
     </g>
    </g>
    <g id="ytick_2">
     <g id="line2d_17">
      <path d="M 108 310.854502 
L 777.6 310.854502 
" clip-path="url(#pa5dc1d3ad2)" style="fill: none; stroke: #808080; stroke-width: 0.5; stroke-linecap: square"/>
     </g>
     <g id="line2d_18">
      <g>
       <use xlink:href="#m191987ae6c" x="108" y="310.854502" style="fill: #808080; stroke: #808080; stroke-width: 0.8"/>
      </g>
     </g>
     <g id="text_9">
      <!-- 20000 -->
      <g style="fill: #808080" transform="translate(69.1875 314.653721) scale(0.1 -0.1)">
       <use xlink:href="#DejaVuSans-32"/>
       <use xlink:href="#DejaVuSans-30" x="63.623047"/>
       <use xlink:href="#DejaVuSans-30" x="127.246094"/>
       <use xlink:href="#DejaVuSans-30" x="190.869141"/>
       <use xlink:href="#DejaVuSans-30" x="254.492188"/>
      </g>
     </g>
    </g>
    <g id="ytick_3">
     <g id="line2d_19">
      <path d="M 108 237.229004 
L 777.6 237.229004 
" clip-path="url(#pa5dc1d3ad2)" style="fill: none; stroke: #808080; stroke-width: 0.5; stroke-linecap: square"/>
     </g>
     <g id="line2d_20">
      <g>
       <use xlink:href="#m191987ae6c" x="108" y="237.229004" style="fill: #808080; stroke: #808080; stroke-width: 0.8"/>
      </g>
     </g>
     <g id="text_10">
      <!-- 40000 -->
      <g style="fill: #808080" transform="translate(69.1875 241.028223) scale(0.1 -0.1)">
       <use xlink:href="#DejaVuSans-34"/>
       <use xlink:href="#DejaVuSans-30" x="63.623047"/>
       <use xlink:href="#DejaVuSans-30" x="127.246094"/>
       <use xlink:href="#DejaVuSans-30" x="190.869141"/>
       <use xlink:href="#DejaVuSans-30" x="254.492188"/>
      </g>
     </g>
    </g>
    <g id="ytick_4">
     <g id="line2d_21">
      <path d="M 108 163.603506 
L 777.6 163.603506 
" clip-path="url(#pa5dc1d3ad2)" style="fill: none; stroke: #808080; stroke-width: 0.5; stroke-linecap: square"/>
     </g>
     <g id="line2d_22">
      <g>
       <use xlink:href="#m191987ae6c" x="108" y="163.603506" style="fill: #808080; stroke: #808080; stroke-width: 0.8"/>
      </g>
     </g>
     <g id="text_11">
      <!-- 60000 -->
      <g style="fill: #808080" transform="translate(69.1875 167.402725) scale(0.1 -0.1)">
       <use xlink:href="#DejaVuSans-36"/>
       <use xlink:href="#DejaVuSans-30" x="63.623047"/>
       <use xlink:href="#DejaVuSans-30" x="127.246094"/>
       <use xlink:href="#DejaVuSans-30" x="190.869141"/>
       <use xlink:href="#DejaVuSans-30" x="254.492188"/>
      </g>
     </g>
    </g>
    <g id="ytick_5">
     <g id="line2d_23">
      <path d="M 108 89.978008 
L 777.6 89.978008 
" clip-path="url(#pa5dc1d3ad2)" style="fill: none; stroke: #808080; stroke-width: 0.5; stroke-linecap: square"/>
     </g>
     <g id="line2d_24">
      <g>
       <use xlink:href="#m191987ae6c" x="108" y="89.978008" style="fill: #808080; stroke: #808080; stroke-width: 0.8"/>
      </g>
     </g>
     <g id="text_12">
      <!-- 80000 -->
      <g style="fill: #808080" transform="translate(69.1875 93.777227) scale(0.1 -0.1)">
       <defs>
        <path id="DejaVuSans-38" d="M 2034 2216 
Q 1584 2216 1326 1975 
Q 1069 1734 1069 1313 
Q 1069 891 1326 650 
Q 1584 409 2034 409 
Q 2484 409 2743 651 
Q 3003 894 3003 1313 
Q 3003 1734 2745 1975 
Q 2488 2216 2034 2216 
z
M 1403 2484 
Q 997 2584 770 2862 
Q 544 3141 544 3541 
Q 544 4100 942 4425 
Q 1341 4750 2034 4750 
Q 2731 4750 3128 4425 
Q 3525 4100 3525 3541 
Q 3525 3141 3298 2862 
Q 3072 2584 2669 2484 
Q 3125 2378 3379 2068 
Q 3634 1759 3634 1313 
Q 3634 634 3220 271 
Q 2806 -91 2034 -91 
Q 1263 -91 848 271 
Q 434 634 434 1313 
Q 434 1759 690 2068 
Q 947 2378 1403 2484 
z
M 1172 3481 
Q 1172 3119 1398 2916 
Q 1625 2713 2034 2713 
Q 2441 2713 2670 2916 
Q 2900 3119 2900 3481 
Q 2900 3844 2670 4047 
Q 2441 4250 2034 4250 
Q 1625 4250 1398 4047 
Q 1172 3844 1172 3481 
z
" transform="scale(0.015625)"/>
       </defs>
       <use xlink:href="#DejaVuSans-38"/>
       <use xlink:href="#DejaVuSans-30" x="63.623047"/>
       <use xlink:href="#DejaVuSans-30" x="127.246094"/>
       <use xlink:href="#DejaVuSans-30" x="190.869141"/>
       <use xlink:href="#DejaVuSans-30" x="254.492188"/>
      </g>
     </g>
    </g>
   </g>
   <g id="line2d_25">
    <path d="M 140.48595 132.592446 
L 150.733884 132.592446 
L 160.981818 132.592446 
L 171.229752 133.225625 
L 181.477686 133.542215 
L 191.72562 133.225625 
L 201.973554 133.542215 
L 212.221488 134.175394 
L 222.469421 136.387841 
L 232.717355 136.70443 
L 242.965289 136.70443 
L 253.213223 139.237147 
L 263.461157 136.071251 
L 273.709091 136.387841 
L 283.957025 136.071251 
L 294.204959 134.808574 
L 304.452893 134.491984 
L 314.700826 134.175394 
L 324.94876 129.743139 
L 335.196694 128.160191 
L 345.444628 126.580924 
L 355.692562 126.580924 
L 365.940496 122.148669 
L 376.18843 122.465259 
L 386.436364 123.415028 
L 396.684298 124.997976 
L 406.932231 127.214104 
L 417.180165 121.1989 
L 427.428099 121.51549 
L 437.676033 121.51549 
L 447.923967 118.669865 
L 458.171901 118.353275 
L 468.419835 120.249131 
L 478.667769 119.303044 
L 488.915702 115.503968 
L 499.163636 114.554199 
L 509.41157 115.503968 
L 519.659504 119.932542 
L 529.907438 116.770327 
L 540.155372 115.820558 
L 550.403306 117.403506 
L 560.65124 118.036685 
L 570.899174 118.353275 
L 581.147107 117.086916 
L 591.395041 116.453737 
L 601.642975 113.92102 
L 611.890909 112.971251 
L 622.138843 113.92102 
L 632.386777 115.187378 
L 642.634711 112.971251 
L 652.882645 108.226088 
L 663.130579 109.175857 
L 673.378512 110.758805 
L 683.626446 112.338072 
L 693.87438 111.075394 
L 704.122314 109.175857 
L 714.370248 109.120637 
L 724.618182 109.856892 
L 734.866116 107.28 
L 745.11405 107.648127 
" clip-path="url(#pa5dc1d3ad2)" style="fill: none; stroke: #ffcc33; stroke-width: 1.5; stroke-linecap: square"/>
   </g>
   <g id="line2d_26">
    <path d="M 140.48595 135.146446 
L 150.733884 135.431428 
L 160.981818 137.055561 
L 171.229752 137.670822 
L 181.477686 137.09778 
L 191.72562 136.276338 
L 201.973554 136.428105 
L 212.221488 137.436371 
L 222.469421 138.274437 
L 232.717355 138.499397 
L 242.965289 138.763787 
L 253.213223 137.800242 
L 263.461157 136.32083 
L 273.709091 135.482678 
L 283.957025 134.84369 
L 294.204959 134.741879 
L 304.452893 135.275089 
L 314.700826 136.097336 
L 324.94876 136.109243 
L 335.196694 135.588256 
L 345.444628 135.360592 
L 355.692562 133.414981 
L 365.940496 132.993676 
L 376.18843 124.356341 
L 386.436364 122.687257 
L 396.684298 119.853164 
L 406.932231 118.286782 
L 417.180165 118.75902 
L 427.428099 115.297817 
L 437.676033 117.398531 
L 447.923967 119.006787 
L 458.171901 118.320431 
L 468.419835 122.274063 
L 478.667769 122.196497 
L 488.915702 123.168699 
L 499.163636 125.293485 
L 509.41157 126.986727 
L 519.659504 123.197516 
L 529.907438 123.734005 
L 540.155372 121.986003 
L 550.403306 122.156463 
L 560.65124 123.232143 
L 570.899174 123.114026 
L 581.147107 123.139939 
L 591.395041 122.406474 
L 601.642975 121.806426 
L 611.890909 121.679048 
L 622.138843 121.303414 
L 632.386777 120.95329 
L 642.634711 120.299979 
L 652.882645 119.349405 
L 663.130579 117.67638 
L 673.378512 116.561961 
L 683.626446 115.037309 
L 693.87438 115.031528 
L 704.122314 114.754944 
L 714.370248 114.873464 
L 724.618182 114.098181 
L 734.866116 113.087786 
L 745.11405 112.612413 
" clip-path="url(#pa5dc1d3ad2)" style="fill: none; stroke: #58d68d; stroke-width: 1.5; stroke-linecap: square"/>
   </g>
   <g id="patch_3">
    <path d="M 138.436364 384.48 
L 142.535537 384.48 
L 142.535537 351.500253 
L 138.436364 351.500253 
z
" clip-path="url(#pa5dc1d3ad2)" style="fill: #33ccff"/>
   </g>
   <g id="patch_4">
    <path d="M 148.684298 384.48 
L 152.783471 384.48 
L 152.783471 360.172031 
L 148.684298 360.172031 
z
" clip-path="url(#pa5dc1d3ad2)" style="fill: #33ccff"/>
   </g>
   <g id="patch_5">
    <path d="M 158.932231 384.48 
L 163.031405 384.48 
L 163.031405 357.048115 
L 158.932231 357.048115 
z
" clip-path="url(#pa5dc1d3ad2)" style="fill: #33ccff"/>
   </g>
   <g id="patch_6">
    <path d="M 169.180165 384.48 
L 173.279339 384.48 
L 173.279339 366.077453 
L 169.180165 366.077453 
z
" clip-path="url(#pa5dc1d3ad2)" style="fill: #33ccff"/>
   </g>
   <g id="patch_7">
    <path d="M 179.428099 384.48 
L 183.527273 384.48 
L 183.527273 358.898822 
L 179.428099 358.898822 
z
" clip-path="url(#pa5dc1d3ad2)" style="fill: #33ccff"/>
   </g>
   <g id="patch_8">
    <path d="M 189.676033 384.48 
L 193.775207 384.48 
L 193.775207 362.235558 
L 189.676033 362.235558 
z
" clip-path="url(#pa5dc1d3ad2)" style="fill: #33ccff"/>
   </g>
   <g id="patch_9">
    <path d="M 199.923967 384.48 
L 204.02314 384.48 
L 204.02314 364.716573 
L 199.923967 364.716573 
z
" clip-path="url(#pa5dc1d3ad2)" style="fill: #33ccff"/>
   </g>
   <g id="patch_10">
    <path d="M 210.171901 384.48 
L 214.271074 384.48 
L 214.271074 336.062402 
L 210.171901 336.062402 
z
" clip-path="url(#pa5dc1d3ad2)" style="fill: #33ccff"/>
   </g>
   <g id="patch_11">
    <path d="M 220.419835 384.48 
L 224.519008 384.48 
L 224.519008 351.563587 
L 220.419835 351.563587 
z
" clip-path="url(#pa5dc1d3ad2)" style="fill: #33ccff"/>
   </g>
   <g id="patch_12">
    <path d="M 230.667769 384.48 
L 234.766942 384.48 
L 234.766942 337.458996 
L 230.667769 337.458996 
z
" clip-path="url(#pa5dc1d3ad2)" style="fill: #33ccff"/>
   </g>
   <g id="patch_13">
    <path d="M 240.915702 384.48 
L 245.014876 384.48 
L 245.014876 370.975478 
L 240.915702 370.975478 
z
" clip-path="url(#pa5dc1d3ad2)" style="fill: #33ccff"/>
   </g>
   <g id="patch_14">
    <path d="M 251.163636 384.48 
L 255.26281 384.48 
L 255.26281 326.9126 
L 251.163636 326.9126 
z
" clip-path="url(#pa5dc1d3ad2)" style="fill: #33ccff"/>
   </g>
   <g id="patch_15">
    <path d="M 261.41157 384.48 
L 265.510744 384.48 
L 265.510744 354.14943 
L 261.41157 354.14943 
z
" clip-path="url(#pa5dc1d3ad2)" style="fill: #33ccff"/>
   </g>
   <g id="patch_16">
    <path d="M 271.659504 384.48 
L 275.758678 384.48 
L 275.758678 364.9965 
L 271.659504 364.9965 
z
" clip-path="url(#pa5dc1d3ad2)" style="fill: #33ccff"/>
   </g>
   <g id="patch_17">
    <path d="M 281.907438 384.48 
L 286.006612 384.48 
L 286.006612 362.315989 
L 281.907438 362.315989 
z
" clip-path="url(#pa5dc1d3ad2)" style="fill: #33ccff"/>
   </g>
   <g id="patch_18">
    <path d="M 292.155372 384.48 
L 296.254545 384.48 
L 296.254545 347.549636 
L 292.155372 347.549636 
z
" clip-path="url(#pa5dc1d3ad2)" style="fill: #33ccff"/>
   </g>
   <g id="patch_19">
    <path d="M 302.403306 384.48 
L 306.502479 384.48 
L 306.502479 345.957075 
L 302.403306 345.957075 
z
" clip-path="url(#pa5dc1d3ad2)" style="fill: #33ccff"/>
   </g>
   <g id="patch_20">
    <path d="M 312.65124 384.48 
L 316.750413 384.48 
L 316.750413 355.436085 
L 312.65124 355.436085 
z
" clip-path="url(#pa5dc1d3ad2)" style="fill: #33ccff"/>
   </g>
   <g id="patch_21">
    <path d="M 322.899174 384.48 
L 326.998347 384.48 
L 326.998347 318.465566 
L 322.899174 318.465566 
z
" clip-path="url(#pa5dc1d3ad2)" style="fill: #33ccff"/>
   </g>
   <g id="patch_22">
    <path d="M 333.147107 384.48 
L 337.246281 384.48 
L 337.246281 327.512609 
L 333.147107 327.512609 
z
" clip-path="url(#pa5dc1d3ad2)" style="fill: #33ccff"/>
   </g>
   <g id="patch_23">
    <path d="M 343.395041 384.48 
L 347.494215 384.48 
L 347.494215 337.741782 
L 343.395041 337.741782 
z
" clip-path="url(#pa5dc1d3ad2)" style="fill: #33ccff"/>
   </g>
   <g id="patch_24">
    <path d="M 353.642975 384.48 
L 357.742149 384.48 
L 357.742149 324.991074 
L 353.642975 324.991074 
z
" clip-path="url(#pa5dc1d3ad2)" style="fill: #33ccff"/>
   </g>
   <g id="patch_25">
    <path d="M 363.890909 384.48 
L 367.990083 384.48 
L 367.990083 290.034011 
L 363.890909 290.034011 
z
" clip-path="url(#pa5dc1d3ad2)" style="fill: #33ccff"/>
   </g>
   <g id="patch_26">
    <path d="M 374.138843 384.48 
L 378.238017 384.48 
L 378.238017 319.069591 
L 374.138843 319.069591 
z
" clip-path="url(#pa5dc1d3ad2)" style="fill: #33ccff"/>
   </g>
   <g id="patch_27">
    <path d="M 384.386777 384.48 
L 388.48595 384.48 
L 388.48595 350.266042 
L 384.386777 350.266042 
z
" clip-path="url(#pa5dc1d3ad2)" style="fill: #33ccff"/>
   </g>
   <g id="patch_28">
    <path d="M 394.634711 384.48 
L 398.733884 384.48 
L 398.733884 344.449386 
L 394.634711 344.449386 
z
" clip-path="url(#pa5dc1d3ad2)" style="fill: #33ccff"/>
   </g>
   <g id="patch_29">
    <path d="M 404.882645 384.48 
L 408.981818 384.48 
L 408.981818 356.139705 
L 404.882645 356.139705 
z
" clip-path="url(#pa5dc1d3ad2)" style="fill: #33ccff"/>
   </g>
   <g id="patch_30">
    <path d="M 415.130579 384.48 
L 419.229752 384.48 
L 419.229752 302.729111 
L 415.130579 302.729111 
z
" clip-path="url(#pa5dc1d3ad2)" style="fill: #33ccff"/>
   </g>
   <g id="patch_31">
    <path d="M 425.378512 384.48 
L 429.477686 384.48 
L 429.477686 331.804967 
L 425.378512 331.804967 
z
" clip-path="url(#pa5dc1d3ad2)" style="fill: #33ccff"/>
   </g>
   <g id="patch_32">
    <path d="M 435.626446 384.48 
L 439.72562 384.48 
L 439.72562 330.863521 
L 435.626446 330.863521 
z
" clip-path="url(#pa5dc1d3ad2)" style="fill: #33ccff"/>
   </g>
   <g id="patch_33">
    <path d="M 445.87438 384.48 
L 449.973554 384.48 
L 449.973554 283.3592 
L 445.87438 283.3592 
z
" clip-path="url(#pa5dc1d3ad2)" style="fill: #33ccff"/>
   </g>
   <g id="patch_34">
    <path d="M 456.122314 384.48 
L 460.221488 384.48 
L 460.221488 333.338999 
L 456.122314 333.338999 
z
" clip-path="url(#pa5dc1d3ad2)" style="fill: #33ccff"/>
   </g>
   <g id="patch_35">
    <path d="M 466.370248 384.48 
L 470.469421 384.48 
L 470.469421 351.690379 
L 466.370248 351.690379 
z
" clip-path="url(#pa5dc1d3ad2)" style="fill: #33ccff"/>
   </g>
   <g id="patch_36">
    <path d="M 476.618182 384.48 
L 480.717355 384.48 
L 480.717355 339.550205 
L 476.618182 339.550205 
z
" clip-path="url(#pa5dc1d3ad2)" style="fill: #33ccff"/>
   </g>
   <g id="patch_37">
    <path d="M 486.866116 384.48 
L 490.965289 384.48 
L 490.965289 297.569411 
L 486.866116 297.569411 
z
" clip-path="url(#pa5dc1d3ad2)" style="fill: #33ccff"/>
   </g>
   <g id="patch_38">
    <path d="M 497.11405 384.48 
L 501.213223 384.48 
L 501.213223 353.072067 
L 497.11405 353.072067 
z
" clip-path="url(#pa5dc1d3ad2)" style="fill: #33ccff"/>
   </g>
   <g id="patch_39">
    <path d="M 507.361983 384.48 
L 511.461157 384.48 
L 511.461157 341.462787 
L 507.361983 341.462787 
z
" clip-path="url(#pa5dc1d3ad2)" style="fill: #33ccff"/>
   </g>
   <g id="patch_40">
    <path d="M 517.609917 384.48 
L 521.709091 384.48 
L 521.709091 308.643476 
L 517.609917 308.643476 
z
" clip-path="url(#pa5dc1d3ad2)" style="fill: #33ccff"/>
   </g>
   <g id="patch_41">
    <path d="M 527.857851 384.48 
L 531.957025 384.48 
L 531.957025 342.998645 
L 527.857851 342.998645 
z
" clip-path="url(#pa5dc1d3ad2)" style="fill: #33ccff"/>
   </g>
   <g id="patch_42">
    <path d="M 538.105785 384.48 
L 542.204959 384.48 
L 542.204959 352.767134 
L 538.105785 352.767134 
z
" clip-path="url(#pa5dc1d3ad2)" style="fill: #33ccff"/>
   </g>
   <g id="patch_43">
    <path d="M 548.353719 384.48 
L 552.452893 384.48 
L 552.452893 355.977626 
L 548.353719 355.977626 
z
" clip-path="url(#pa5dc1d3ad2)" style="fill: #33ccff"/>
   </g>
   <g id="patch_44">
    <path d="M 558.601653 384.48 
L 562.700826 384.48 
L 562.700826 344.343281 
L 558.601653 344.343281 
z
" clip-path="url(#pa5dc1d3ad2)" style="fill: #33ccff"/>
   </g>
   <g id="patch_45">
    <path d="M 568.849587 384.48 
L 572.94876 384.48 
L 572.94876 335.79586 
L 568.849587 335.79586 
z
" clip-path="url(#pa5dc1d3ad2)" style="fill: #33ccff"/>
   </g>
   <g id="patch_46">
    <path d="M 579.097521 384.48 
L 583.196694 384.48 
L 583.196694 248.546206 
L 579.097521 248.546206 
z
" clip-path="url(#pa5dc1d3ad2)" style="fill: #33ccff"/>
   </g>
   <g id="patch_47">
    <path d="M 589.345455 384.48 
L 593.444628 384.48 
L 593.444628 344.034515 
L 589.345455 344.034515 
z
" clip-path="url(#pa5dc1d3ad2)" style="fill: #33ccff"/>
   </g>
   <g id="patch_48">
    <path d="M 599.593388 384.48 
L 603.692562 384.48 
L 603.692562 326.918806 
L 599.593388 326.918806 
z
" clip-path="url(#pa5dc1d3ad2)" style="fill: #33ccff"/>
   </g>
   <g id="patch_49">
    <path d="M 609.841322 384.48 
L 613.940496 384.48 
L 613.940496 341.463822 
L 609.841322 341.463822 
z
" clip-path="url(#pa5dc1d3ad2)" style="fill: #33ccff"/>
   </g>
   <g id="patch_50">
    <path d="M 620.089256 384.48 
L 624.18843 384.48 
L 624.18843 322.3262 
L 620.089256 322.3262 
z
" clip-path="url(#pa5dc1d3ad2)" style="fill: #33ccff"/>
   </g>
   <g id="patch_51">
    <path d="M 630.33719 384.48 
L 634.436364 384.48 
L 634.436364 334.393426 
L 630.33719 334.393426 
z
" clip-path="url(#pa5dc1d3ad2)" style="fill: #33ccff"/>
   </g>
   <g id="patch_52">
    <path d="M 640.585124 384.48 
L 644.684298 384.48 
L 644.684298 332.072361 
L 640.585124 332.072361 
z
" clip-path="url(#pa5dc1d3ad2)" style="fill: #33ccff"/>
   </g>
   <g id="patch_53">
    <path d="M 650.833058 384.48 
L 654.932231 384.48 
L 654.932231 290.538865 
L 650.833058 290.538865 
z
" clip-path="url(#pa5dc1d3ad2)" style="fill: #33ccff"/>
   </g>
   <g id="patch_54">
    <path d="M 661.080992 384.48 
L 665.180165 384.48 
L 665.180165 325.596011 
L 661.080992 325.596011 
z
" clip-path="url(#pa5dc1d3ad2)" style="fill: #33ccff"/>
   </g>
   <g id="patch_55">
    <path d="M 671.328926 384.48 
L 675.428099 384.48 
L 675.428099 350.178006 
L 671.328926 350.178006 
z
" clip-path="url(#pa5dc1d3ad2)" style="fill: #33ccff"/>
   </g>
   <g id="patch_56">
    <path d="M 681.57686 384.48 
L 685.676033 384.48 
L 685.676033 339.771969 
L 681.57686 339.771969 
z
" clip-path="url(#pa5dc1d3ad2)" style="fill: #33ccff"/>
   </g>
   <g id="patch_57">
    <path d="M 691.824793 384.48 
L 695.923967 384.48 
L 695.923967 321.138472 
L 691.824793 321.138472 
z
" clip-path="url(#pa5dc1d3ad2)" style="fill: #33ccff"/>
   </g>
   <g id="patch_58">
    <path d="M 702.072727 384.48 
L 706.171901 384.48 
L 706.171901 303.593046 
L 702.072727 303.593046 
z
" clip-path="url(#pa5dc1d3ad2)" style="fill: #33ccff"/>
   </g>
   <g id="patch_59">
    <path d="M 712.320661 384.48 
L 716.419835 384.48 
L 716.419835 275.503475 
L 712.320661 275.503475 
z
" clip-path="url(#pa5dc1d3ad2)" style="fill: #33ccff"/>
   </g>
   <g id="patch_60">
    <path d="M 722.568595 384.48 
L 726.667769 384.48 
L 726.667769 291.851012 
L 722.568595 291.851012 
z
" clip-path="url(#pa5dc1d3ad2)" style="fill: #33ccff"/>
   </g>
   <g id="patch_61">
    <path d="M 732.816529 384.48 
L 736.915702 384.48 
L 736.915702 329.748375 
L 732.816529 329.748375 
z
" clip-path="url(#pa5dc1d3ad2)" style="fill: #33ccff"/>
   </g>
   <g id="patch_62">
    <path d="M 743.064463 384.48 
L 747.163636 384.48 
L 747.163636 356.858414 
L 743.064463 356.858414 
z
" clip-path="url(#pa5dc1d3ad2)" style="fill: #33ccff"/>
   </g>
   <g id="patch_63">
    <path d="M 108 384.48 
L 108 51.84 
" style="fill: none; stroke: #6699ff; stroke-width: 0.8; stroke-linejoin: miter; stroke-linecap: square"/>
   </g>
   <g id="patch_64">
    <path d="M 108 384.48 
L 777.6 384.48 
" style="fill: none; stroke: #6699ff; stroke-width: 0.8; stroke-linejoin: miter; stroke-linecap: square"/>
   </g>
   <g id="legend_1">
    <g id="patch_65">
     <path d="M 701.553125 379.48 
L 770.6 379.48 
Q 772.6 379.48 772.6 377.48 
L 772.6 334.445625 
Q 772.6 332.445625 770.6 332.445625 
L 701.553125 332.445625 
Q 699.553125 332.445625 699.553125 334.445625 
L 699.553125 377.48 
Q 699.553125 379.48 701.553125 379.48 
z
" style="fill: #ffffff; opacity: 0.8; stroke: #cccccc; stroke-linejoin: miter"/>
    </g>
    <g id="line2d_27">
     <path d="M 703.553125 340.544062 
L 713.553125 340.544062 
L 723.553125 340.544062 
" style="fill: none; stroke: #ffcc33; stroke-width: 1.5; stroke-linecap: square"/>
    </g>
    <g id="text_13">
     <!-- real -->
     <g transform="translate(731.553125 344.044062) scale(0.1 -0.1)">
      <defs>
       <path id="DejaVuSans-72" d="M 2631 2963 
Q 2534 3019 2420 3045 
Q 2306 3072 2169 3072 
Q 1681 3072 1420 2755 
Q 1159 2438 1159 1844 
L 1159 0 
L 581 0 
L 581 3500 
L 1159 3500 
L 1159 2956 
Q 1341 3275 1631 3429 
Q 1922 3584 2338 3584 
Q 2397 3584 2469 3576 
Q 2541 3569 2628 3553 
L 2631 2963 
z
" transform="scale(0.015625)"/>
       <path id="DejaVuSans-65" d="M 3597 1894 
L 3597 1613 
L 953 1613 
Q 991 1019 1311 708 
Q 1631 397 2203 397 
Q 2534 397 2845 478 
Q 3156 559 3463 722 
L 3463 178 
Q 3153 47 2828 -22 
Q 2503 -91 2169 -91 
Q 1331 -91 842 396 
Q 353 884 353 1716 
Q 353 2575 817 3079 
Q 1281 3584 2069 3584 
Q 2775 3584 3186 3129 
Q 3597 2675 3597 1894 
z
M 3022 2063 
Q 3016 2534 2758 2815 
Q 2500 3097 2075 3097 
Q 1594 3097 1305 2825 
Q 1016 2553 972 2059 
L 3022 2063 
z
" transform="scale(0.015625)"/>
       <path id="DejaVuSans-61" d="M 2194 1759 
Q 1497 1759 1228 1600 
Q 959 1441 959 1056 
Q 959 750 1161 570 
Q 1363 391 1709 391 
Q 2188 391 2477 730 
Q 2766 1069 2766 1631 
L 2766 1759 
L 2194 1759 
z
M 3341 1997 
L 3341 0 
L 2766 0 
L 2766 531 
Q 2569 213 2275 61 
Q 1981 -91 1556 -91 
Q 1019 -91 701 211 
Q 384 513 384 1019 
Q 384 1609 779 1909 
Q 1175 2209 1959 2209 
L 2766 2209 
L 2766 2266 
Q 2766 2663 2505 2880 
Q 2244 3097 1772 3097 
Q 1472 3097 1187 3025 
Q 903 2953 641 2809 
L 641 3341 
Q 956 3463 1253 3523 
Q 1550 3584 1831 3584 
Q 2591 3584 2966 3190 
Q 3341 2797 3341 1997 
z
" transform="scale(0.015625)"/>
       <path id="DejaVuSans-6c" d="M 603 4863 
L 1178 4863 
L 1178 0 
L 603 0 
L 603 4863 
z
" transform="scale(0.015625)"/>
      </defs>
      <use xlink:href="#DejaVuSans-72"/>
      <use xlink:href="#DejaVuSans-65" x="38.863281"/>
      <use xlink:href="#DejaVuSans-61" x="100.386719"/>
      <use xlink:href="#DejaVuSans-6c" x="161.666016"/>
     </g>
    </g>
    <g id="line2d_28">
     <path d="M 703.553125 355.222188 
L 713.553125 355.222188 
L 723.553125 355.222188 
" style="fill: none; stroke: #58d68d; stroke-width: 1.5; stroke-linecap: square"/>
    </g>
    <g id="text_14">
     <!-- predict -->
     <g transform="translate(731.553125 358.722188) scale(0.1 -0.1)">
      <defs>
       <path id="DejaVuSans-70" d="M 1159 525 
L 1159 -1331 
L 581 -1331 
L 581 3500 
L 1159 3500 
L 1159 2969 
Q 1341 3281 1617 3432 
Q 1894 3584 2278 3584 
Q 2916 3584 3314 3078 
Q 3713 2572 3713 1747 
Q 3713 922 3314 415 
Q 2916 -91 2278 -91 
Q 1894 -91 1617 61 
Q 1341 213 1159 525 
z
M 3116 1747 
Q 3116 2381 2855 2742 
Q 2594 3103 2138 3103 
Q 1681 3103 1420 2742 
Q 1159 2381 1159 1747 
Q 1159 1113 1420 752 
Q 1681 391 2138 391 
Q 2594 391 2855 752 
Q 3116 1113 3116 1747 
z
" transform="scale(0.015625)"/>
       <path id="DejaVuSans-64" d="M 2906 2969 
L 2906 4863 
L 3481 4863 
L 3481 0 
L 2906 0 
L 2906 525 
Q 2725 213 2448 61 
Q 2172 -91 1784 -91 
Q 1150 -91 751 415 
Q 353 922 353 1747 
Q 353 2572 751 3078 
Q 1150 3584 1784 3584 
Q 2172 3584 2448 3432 
Q 2725 3281 2906 2969 
z
M 947 1747 
Q 947 1113 1208 752 
Q 1469 391 1925 391 
Q 2381 391 2643 752 
Q 2906 1113 2906 1747 
Q 2906 2381 2643 2742 
Q 2381 3103 1925 3103 
Q 1469 3103 1208 2742 
Q 947 2381 947 1747 
z
" transform="scale(0.015625)"/>
       <path id="DejaVuSans-69" d="M 603 3500 
L 1178 3500 
L 1178 0 
L 603 0 
L 603 3500 
z
M 603 4863 
L 1178 4863 
L 1178 4134 
L 603 4134 
L 603 4863 
z
" transform="scale(0.015625)"/>
       <path id="DejaVuSans-63" d="M 3122 3366 
L 3122 2828 
Q 2878 2963 2633 3030 
Q 2388 3097 2138 3097 
Q 1578 3097 1268 2742 
Q 959 2388 959 1747 
Q 959 1106 1268 751 
Q 1578 397 2138 397 
Q 2388 397 2633 464 
Q 2878 531 3122 666 
L 3122 134 
Q 2881 22 2623 -34 
Q 2366 -91 2075 -91 
Q 1284 -91 818 406 
Q 353 903 353 1747 
Q 353 2603 823 3093 
Q 1294 3584 2113 3584 
Q 2378 3584 2631 3529 
Q 2884 3475 3122 3366 
z
" transform="scale(0.015625)"/>
       <path id="DejaVuSans-74" d="M 1172 4494 
L 1172 3500 
L 2356 3500 
L 2356 3053 
L 1172 3053 
L 1172 1153 
Q 1172 725 1289 603 
Q 1406 481 1766 481 
L 2356 481 
L 2356 0 
L 1766 0 
Q 1100 0 847 248 
Q 594 497 594 1153 
L 594 3053 
L 172 3053 
L 172 3500 
L 594 3500 
L 594 4494 
L 1172 4494 
z
" transform="scale(0.015625)"/>
      </defs>
      <use xlink:href="#DejaVuSans-70"/>
      <use xlink:href="#DejaVuSans-72" x="63.476562"/>
      <use xlink:href="#DejaVuSans-65" x="102.339844"/>
      <use xlink:href="#DejaVuSans-64" x="163.863281"/>
      <use xlink:href="#DejaVuSans-69" x="227.339844"/>
      <use xlink:href="#DejaVuSans-63" x="255.123047"/>
      <use xlink:href="#DejaVuSans-74" x="310.103516"/>
     </g>
    </g>
    <g id="patch_66">
     <path d="M 703.553125 373.400312 
L 723.553125 373.400312 
L 723.553125 366.400312 
L 703.553125 366.400312 
z
" style="fill: #33ccff"/>
    </g>
    <g id="text_15">
     <!-- volume -->
     <g transform="translate(731.553125 373.400312) scale(0.1 -0.1)">
      <defs>
       <path id="DejaVuSans-76" d="M 191 3500 
L 800 3500 
L 1894 563 
L 2988 3500 
L 3597 3500 
L 2284 0 
L 1503 0 
L 191 3500 
z
" transform="scale(0.015625)"/>
       <path id="DejaVuSans-6f" d="M 1959 3097 
Q 1497 3097 1228 2736 
Q 959 2375 959 1747 
Q 959 1119 1226 758 
Q 1494 397 1959 397 
Q 2419 397 2687 759 
Q 2956 1122 2956 1747 
Q 2956 2369 2687 2733 
Q 2419 3097 1959 3097 
z
M 1959 3584 
Q 2709 3584 3137 3096 
Q 3566 2609 3566 1747 
Q 3566 888 3137 398 
Q 2709 -91 1959 -91 
Q 1206 -91 779 398 
Q 353 888 353 1747 
Q 353 2609 779 3096 
Q 1206 3584 1959 3584 
z
" transform="scale(0.015625)"/>
       <path id="DejaVuSans-75" d="M 544 1381 
L 544 3500 
L 1119 3500 
L 1119 1403 
Q 1119 906 1312 657 
Q 1506 409 1894 409 
Q 2359 409 2629 706 
Q 2900 1003 2900 1516 
L 2900 3500 
L 3475 3500 
L 3475 0 
L 2900 0 
L 2900 538 
Q 2691 219 2414 64 
Q 2138 -91 1772 -91 
Q 1169 -91 856 284 
Q 544 659 544 1381 
z
M 1991 3584 
L 1991 3584 
z
" transform="scale(0.015625)"/>
       <path id="DejaVuSans-6d" d="M 3328 2828 
Q 3544 3216 3844 3400 
Q 4144 3584 4550 3584 
Q 5097 3584 5394 3201 
Q 5691 2819 5691 2113 
L 5691 0 
L 5113 0 
L 5113 2094 
Q 5113 2597 4934 2840 
Q 4756 3084 4391 3084 
Q 3944 3084 3684 2787 
Q 3425 2491 3425 1978 
L 3425 0 
L 2847 0 
L 2847 2094 
Q 2847 2600 2669 2842 
Q 2491 3084 2119 3084 
Q 1678 3084 1418 2786 
Q 1159 2488 1159 1978 
L 1159 0 
L 581 0 
L 581 3500 
L 1159 3500 
L 1159 2956 
Q 1356 3278 1631 3431 
Q 1906 3584 2284 3584 
Q 2666 3584 2933 3390 
Q 3200 3197 3328 2828 
z
" transform="scale(0.015625)"/>
      </defs>
      <use xlink:href="#DejaVuSans-76"/>
      <use xlink:href="#DejaVuSans-6f" x="59.179688"/>
      <use xlink:href="#DejaVuSans-6c" x="120.361328"/>
      <use xlink:href="#DejaVuSans-75" x="148.144531"/>
      <use xlink:href="#DejaVuSans-6d" x="211.523438"/>
      <use xlink:href="#DejaVuSans-65" x="308.935547"/>
     </g>
    </g>
   </g>
  </g>
 </g>
 <defs>
  <clipPath id="pa5dc1d3ad2">
   <rect x="108" y="51.84" width="669.6" height="332.64"/>
  </clipPath>
 </defs>
</svg>
