<svg xmlns="http://www.w3.org/2000/svg" xmlns:xlink="http://www.w3.org/1999/xlink" viewBox="0 0 594.98 140.36"><defs><style>.bc53fbaf-93f7-4e0f-bfa0-d391a5e51847{isolation:isolate;}.fd6f19dd-e43f-4a8c-b725-f6aadc6268db{fill:url(#f6a3acc4-683d-4830-bd85-7c3b8d28466e);}.eee78dad-56f5-4957-b6ff-3a6359878ced{fill:#86ffff;opacity:0.37;}.b992d264-15d5-46cf-a1d1-d5baca3652d9,.eee78dad-56f5-4957-b6ff-3a6359878ced,.f3654a8e-1f06-4868-a1ca-6052971982bb{mix-blend-mode:screen;}.ec9dd7ae-df9d-439a-8943-ca2e2965e631{fill:#ecf7f9;}.b2052370-18f1-465f-9fe1-8c5489750d3c{fill:#7de5f6;}.feff8195-9c9a-4b89-93d9-2b32007f6e40{fill:#a9eafa;}.a5f27a47-2f9a-4a80-bf6f-75e4e592b9f3,.f3654a8e-1f06-4868-a1ca-6052971982bb{fill:#47b2ff;}.a5f27a47-2f9a-4a80-bf6f-75e4e592b9f3{mix-blend-mode:multiply;}.b992d264-15d5-46cf-a1d1-d5baca3652d9{opacity:0.7;fill:url(#a474d1a1-be3c-4242-aba1-7a666ab99f5e);}.e5c7084d-1819-4318-a8d9-4ef5eb44c06e{fill:#ffd715;}.ff9e7b24-ed0d-4f08-a8d0-200ec5dfc4dc{fill:#ffcc01;}.b571b1ec-70a9-4dbd-8d59-ef57ff32256b{fill:#fcbd11;}.f9a252ff-1520-4a28-bee3-48871d5125c5{fill:#ffdb53;}.af9d83d6-7a72-4f9e-8214-a75d3c0c624a{fill:#e69a24;}.e570d0a3-f5b4-4036-9812-2abdd104b219{fill:#bf7b7b;}</style><linearGradient id="f6a3acc4-683d-4830-bd85-7c3b8d28466e" x1="61.77" y1="146.73" x2="78.83" y2="56.39" gradientUnits="userSpaceOnUse"><stop offset="0" stop-color="#02f5fb"/><stop offset="1" stop-color="#0456de"/></linearGradient><linearGradient id="a474d1a1-be3c-4242-aba1-7a666ab99f5e" x1="75.82" y1="134.95" x2="104.54" y2="80.74" gradientUnits="userSpaceOnUse"><stop offset="0"/><stop offset="0.03" stop-color="#091011"/><stop offset="0.48" stop-color="#7de6f9"/><stop offset="0.74" stop-color="#3f757e"/><stop offset="1"/></linearGradient></defs><g class="bc53fbaf-93f7-4e0f-bfa0-d391a5e51847"><g id="a723bb97-b03d-423f-87c4-dd6109609985" data-name="Layer 1"><path class="fd6f19dd-e43f-4a8c-b725-f6aadc6268db" d="M138.37,73.61l-1.69,34.48L125.57,121l-2.89,3.36S119,128,111,132.05a94.92,94.92,0,0,1-21.18,7.54c-21.9,5-23.39-16.38-53.34-4.6s-33.53,0-20.71-10.18S52.08,120,51.2,91.05C51,84.27,49.14,79.6,46.38,76.61c-3.56-3.85-8.65-4.88-13.7-4C25.73,73.87,18.83,78.78,16,85.06c-6.25,14,2.13,22.57,2.52,23l-8.23-2.85-5-17.71L23.74,54.3,37,37.93l33-8.4,38.14,12.79L115.52,60l16.79,2.26Z"/><path class="eee78dad-56f5-4957-b6ff-3a6359878ced" d="M138.37,73.61l-1.69,34.48L125.57,121c5.65-14.93,2.6-26.95.28-36.12-3.13-12.39-5.21,7.59-6.85-1.39s-7.3-13.58-6.56-4.6-3.58,3.79-7.15-5.79-8.2-10-6.85-.4-2.83,12-8-2-3.43,10.19-8-3.19S63.42,41.72,64.91,52.1s-5.36,8.79-7.3,3.6-4.62-7.59-4.32-2,.15,7.79-2.69,3.79-7.15-7-6.55.61-1.34,9.19-6.11,2.4c-4.52-6.45-9.43,1.28-5.26,12.14C25.73,73.87,18.83,78.78,16,85.06c-6.25,14,2.13,22.57,2.52,23l-8.23-2.85-5-17.71L23.74,54.3,37,37.93l33-8.4,38.14,12.79L115.52,60l16.79,2.26Z"/><path class="eee78dad-56f5-4957-b6ff-3a6359878ced" d="M138.37,73.61l-1.69,34.48L125.57,121l-2.89,3.36S119,128,111,132.05c18.14-23.07-4.51-11.46.88-19.43,5.81-8.59,1-22-5.67-12.78s-8.05,4.59-10.28-6.39-5.36,7.59-10-6.19-6,5.4-6.86-2-8.64-16-8.64-5.79-7,7.19-10.43-2.6c-3.3-9.41-11.86-12.37-13.61-.26-3.56-3.85-8.65-4.88-13.7-4C25.73,73.87,18.83,78.78,16,85.06c-6.25,14,2.13,22.57,2.52,23l-8.23-2.85-5-17.71L23.74,54.3,37,37.93l33-8.4,38.14,12.79L115.52,60l16.79,2.26Z"/><path class="ec9dd7ae-df9d-439a-8943-ca2e2965e631" d="M140.19,70.08c-3.42,1,.75-23.17-6.11-23.17s-6.25,10-12.81,11.59-9.14-34.64-21.45-30.56c-4.82,1.59,1.73,7.32-3.44,8.52s-3.87-14.25-9.13-13.31S79-7.28,61.22,1.58C53.47,5.44,64.32,16,55.86,20.35,48.4,24.21,47.14,9,37.48,17.15c-4.87,4.13,8.34,11.45-.69,15.58S19.51,36,18.11,48.71C15.92,68.55,8.77,55.23,4.3,82c-3.57,21.34,13.86,34.78,16.29,29.16,2.19-5.06-2.88-5.86-6.65-7.32S7,94,9.27,88.12s6.85-3,7.15-5.72c.2-1.8-1.64-5.6.94-3.79s4.87,4.12,5.92-1.74c.52-2.93.78-8.47,1.84-13.89h0c1.06-5.42,2.91-10.71,6.6-13.16,7.38-4.89,7.59,2.7,13-6.2,4.53-7.51,7.93.48,10.56,8.17.48,1.42.93,2.83,1.36,4.12,2.51,7.54,12.6,12,16.95,8.58a5.21,5.21,0,0,0,1.9-3.39c1.53-8.83-.15-11.28,3.13-12.88,3.7-1.8,2.61,9.48,8,7.39s2.08-9.18,6.77-11.08,2.69,7.78,6.79,2,8.86,1.31,9.16,12.49,5.81,12.28,7.45,6.89,4-1.3,3.8,4,3.28,5,6.48-.91a6.17,6.17,0,0,1,2.27-2.52c3.14-1.74,6.69,2.38,5,14.11-2.08,14.78-3.42,20-1,20.47s5.37,9-8,16.51-6,13-35.16,22C129.77,132,138,114.22,143.62,95.45S143.62,69.08,140.19,70.08Zm-94.88-50c1.57.7,1.72,3.3-.07,3.3s-4.55,2.39-4.7-.61S41.8,18.49,45.31,20.05Zm30.25-1.3c-2.46-4.49-4.47-2.39-10-2-6.24.45-5.07-11.18-.38-10.89C67.38,6,76.91,7.26,80,21.05,80.69,24.35,78,23.24,75.56,18.75Zm25,15.11c-.14-4,1.49-4.65,5,2C102.36,32.13,100.67,37.85,100.52,33.86Z"/><path class="ec9dd7ae-df9d-439a-8943-ca2e2965e631" d="M46.36,11.06c-3.51-3.27-10.51-.9-11.48-3.29s3.8-4,5.89-2.5,2.61,1.4,2.16-1.1,2.76-2.7,4.92,2.6,4.09,6.59,6,7.19S52.47,16.75,46.36,11.06Z"/><path class="ec9dd7ae-df9d-439a-8943-ca2e2965e631" d="M25.5,10.76c-6.63-1.83-11.83,1.87-9.17,4.6,1.27,1.29,5.22-3.7,10.73-2.3S28,11.46,25.5,10.76Z"/><path class="ec9dd7ae-df9d-439a-8943-ca2e2965e631" d="M22.52,20.85c-5.76,2-10.51,8.79-5.74,8.29s3.13-.3-.6,2.39S6.57,42.12,10.74,45.41s5-10.78,10.43-13.38,7.68-2.09,8-4.59-5.81-4-1.27-3.8,6,3,7.75,1.1S31.16,17.85,22.52,20.85Z"/><path class="ec9dd7ae-df9d-439a-8943-ca2e2965e631" d="M10.15,56.3c-3.88,2.1-5.59,1.7-4.62-.9S6.42,57.4,10.15,56.3Z"/><path class="ec9dd7ae-df9d-439a-8943-ca2e2965e631" d="M10.37,59.89c-5.36,1.5-6.78,10.79-8.86,9S3.44,60.39,10.37,59.89Z"/><path class="ec9dd7ae-df9d-439a-8943-ca2e2965e631" d="M1.51,82.16c-1.79,4.4-2,9.69-.53,8.19S1.51,82.16,1.51,82.16Z"/><path class="b2052370-18f1-465f-9fe1-8c5489750d3c" d="M20.16,76.27c2.3-3.5.59-5.86,1.59-8s-2.84.46-2.39,4.46S18.67,78.54,20.16,76.27Z"/><path class="feff8195-9c9a-4b89-93d9-2b32007f6e40" d="M54.9,51.78c-2.62-7.69-6-15.68-10.55-8.17-5.37,8.9-5.59,1.31-13,6.2C27.7,52.26,25.84,57.55,24.79,63c2.41-18.35,8.06-20.37,8.77-17.72.8,2.93,10.34-14,9.34-5.47C41.94,48.07,53.17,21.52,54.9,51.78Z"/><path class="b2052370-18f1-465f-9fe1-8c5489750d3c" d="M13.55,79.14c.45,1.19-.3,3.06-1.29,2.59S13,77.54,13.55,79.14Z"/><path class="b2052370-18f1-465f-9fe1-8c5489750d3c" d="M41.59,42.92c-.65,2.61-4.17,2.49-4.1,1S41.89,41.72,41.59,42.92Z"/><path class="b2052370-18f1-465f-9fe1-8c5489750d3c" d="M57,49c-.7,4.09,5.81,12.88,7.67,10.19S61,56.1,59.54,53.4,57.68,45.11,57,49Z"/><path class="b2052370-18f1-465f-9fe1-8c5489750d3c" d="M68.48,56.1c2.06,2.76.38,4.89,2.46,3.3s3.43-6.2,1.12-5.2-3.28-2.79-4.62-1.6S67.52,54.8,68.48,56.1Z"/><path class="eee78dad-56f5-4957-b6ff-3a6359878ced" d="M55.35,75.55a41,41,0,0,1,3.46,16.13A28.47,28.47,0,0,1,57.47,100a26.52,26.52,0,0,1-3.53,7,32.75,32.75,0,0,1-10.34,9.31,47.27,47.27,0,0,1-11.9,4.88c-.05,0-.1,0-.12-.1a.15.15,0,0,1,.08-.16,47,47,0,0,0,11.78-5.1,32.66,32.66,0,0,0,10.07-9.36,26.05,26.05,0,0,0,3.33-6.82A27,27,0,0,0,58,91.66,39.18,39.18,0,0,0,54.5,76.2a.81.81,0,0,1,.18-.91c.23-.18.53-.07.67.25Z"/><path class="eee78dad-56f5-4957-b6ff-3a6359878ced" d="M93.81,95.27a29,29,0,0,1-2,12,23.94,23.94,0,0,1-6.29,8.88A24.82,24.82,0,0,1,77.18,121a30.18,30.18,0,0,1-9,1.63c-1.51.05-3,0-4.53-.1s-3-.09-4.51-.08a77.66,77.66,0,0,0-9,.65,69.08,69.08,0,0,0-8.93,1.76,43,43,0,0,0-8.68,3.23.1.1,0,0,1-.13-.07.17.17,0,0,1,.06-.18,44.26,44.26,0,0,1,8.7-3.36,71,71,0,0,1,8.94-1.87,74.15,74.15,0,0,1,9-.77c1.51,0,3,0,4.53,0s3,.11,4.51,0A29.85,29.85,0,0,0,77,120.16a24.58,24.58,0,0,0,8.13-4.81,22.93,22.93,0,0,0,6-8.59,27.74,27.74,0,0,0,1.8-11.41.55.55,0,0,1,.41-.63C93.59,94.7,93.8,95,93.81,95.27Z"/><path class="eee78dad-56f5-4957-b6ff-3a6359878ced" d="M75.22,81a33.93,33.93,0,0,1,1.29,23.83A18.92,18.92,0,0,1,70.45,114a12.46,12.46,0,0,1-4.31,2.18,15.79,15.79,0,0,1-4.57.5,59.62,59.62,0,0,0-17.85,2.89,78.44,78.44,0,0,0-8.7,3.2,50.24,50.24,0,0,0-8.36,4.52.08.08,0,0,1-.13,0,.15.15,0,0,1,0-.18,51.53,51.53,0,0,1,8.35-4.68A81.75,81.75,0,0,1,43.63,119a60.27,60.27,0,0,1,17.95-3.18,15.35,15.35,0,0,0,4.42-.54,12.18,12.18,0,0,0,4.09-2.14,18.24,18.24,0,0,0,5.68-8.76,32.34,32.34,0,0,0-1.41-22.68.84.84,0,0,1,.16-.93.44.44,0,0,1,.7.21Z"/><path class="eee78dad-56f5-4957-b6ff-3a6359878ced" d="M49.54,127a24.26,24.26,0,0,1,7.59-.51c2.53.17,5,.52,7.57.87a75.86,75.86,0,0,0,15.1,1,33,33,0,0,0,14.62-4.22A38.18,38.18,0,0,0,101,119.4a56.19,56.19,0,0,0,5.82-6.34h0a.42.42,0,0,1,.72,0,.83.83,0,0,1,0,1h0a56.15,56.15,0,0,1-6,6.37,39.12,39.12,0,0,1-6.78,4.77,33.4,33.4,0,0,1-14.92,4,76.53,76.53,0,0,1-15.17-1.31c-2.51-.39-5-.79-7.54-1a23.81,23.81,0,0,0-7.53.36s-.1,0-.12-.1A.13.13,0,0,1,49.54,127Z"/><path class="feff8195-9c9a-4b89-93d9-2b32007f6e40" d="M129,66.46A6.11,6.11,0,0,0,126.75,69c-3.21,5.89-6.63,6.19-6.49.91s-2.16-9.39-3.79-4S109.32,70.18,109,59,104,40.72,99.85,46.51s-2.09-3.89-6.78-2-1.34,9-6.78,11.08S82,46.41,78.24,48.21c-3.27,1.6-1.59,4-3.12,12.88a5.25,5.25,0,0,1-1.9,3.39c2.62-3.75,1.27-11.73,2-19.26,1.19-13,7.75,12.27,9.24-.41s7,1.4,9.76-3.39,4.84,6.09,8.79-.3,6.26,18.68,7.9,11.88,2.75,12.39,4.47,11,5-6.89,6.11,3C122.49,76.11,126.89,65.41,129,66.46Z"/><path class="a5f27a47-2f9a-4a80-bf6f-75e4e592b9f3" d="M50.85,76.27a24.23,24.23,0,0,1,3.95,9.24,29.85,29.85,0,0,1,.25,10.79A28.11,28.11,0,0,1,51.59,106a25.62,25.62,0,0,1-6,7,40.17,40.17,0,0,0,5.26-7.71A31.17,31.17,0,0,0,53.91,96a32.41,32.41,0,0,0-3.06-19.7Z"/><path class="a5f27a47-2f9a-4a80-bf6f-75e4e592b9f3" d="M60.08,83.06c.24.6.48,1.22.69,1.84l.39,2c.06.56.12,1.12.16,1.68v1.94a28.28,28.28,0,0,1-1.45,7.46,32.54,32.54,0,0,1-3,6.54,17.92,17.92,0,0,1-4.24,5.08,20.24,20.24,0,0,0,2-2.62,16,16,0,0,0,.91-1.44q.45-.72.84-1.5a43.48,43.48,0,0,0,2.75-6.48,33,33,0,0,0,1.58-7.11A18.8,18.8,0,0,0,60.08,83.06Z"/><path class="a5f27a47-2f9a-4a80-bf6f-75e4e592b9f3" d="M72.91,82.93A39.29,39.29,0,0,1,75.12,94a24.39,24.39,0,0,1-1.88,11.36,15,15,0,0,1-3,4.32,12.52,12.52,0,0,1-4,2.55,16.93,16.93,0,0,1-8.53.93,23.35,23.35,0,0,0,8.23-2.09,13.39,13.39,0,0,0,6.31-6.55,24.65,24.65,0,0,0,2-10.48A55,55,0,0,0,72.91,82.93Z"/><path class="a5f27a47-2f9a-4a80-bf6f-75e4e592b9f3" d="M63.67,130.33c4,.55,8.06,1.26,12.07,1.77a40,40,0,0,0,12-.08,39.11,39.11,0,0,0,11.57-4.14c3.75-2,7.4-4.33,11-6.74A74.9,74.9,0,0,1,99.67,129a34.89,34.89,0,0,1-11.78,4.57,34.77,34.77,0,0,1-12.25-.27A116.9,116.9,0,0,1,63.67,130.33Z"/><path class="a5f27a47-2f9a-4a80-bf6f-75e4e592b9f3" d="M107.08,109.29a51.09,51.09,0,0,1-7.89,8.77,35.54,35.54,0,0,1-4.48,3.38c-.78.48-1.57.94-2.37,1.35a20.78,20.78,0,0,1-2.45,1c.77-.5,1.55-1,2.3-1.49s1.51-1,2.25-1.59c1.47-1.13,2.92-2.29,4.33-3.54s2.8-2.54,4.19-3.85S105.7,110.65,107.08,109.29Z"/><path class="a5f27a47-2f9a-4a80-bf6f-75e4e592b9f3" d="M109.46,99.84a24.48,24.48,0,0,1-3.72,7.64,25.85,25.85,0,0,1-5.32,5.68c1.61-2.16,3.23-4.22,4.76-6.4A63.08,63.08,0,0,0,109.46,99.84Z"/><path class="a5f27a47-2f9a-4a80-bf6f-75e4e592b9f3" d="M90.09,95.85a35,35,0,0,1-1.83,10.32A19.5,19.5,0,0,1,86,110.65a11.6,11.6,0,0,1-3.2,3.17,21.62,21.62,0,0,0,2.74-3.7,26.64,26.64,0,0,0,2-4.4A48.32,48.32,0,0,0,89,100.89C89.37,99.23,89.73,97.55,90.09,95.85Z"/><path class="a5f27a47-2f9a-4a80-bf6f-75e4e592b9f3" d="M62.28,123.67c3,0,6.09,0,9.11-.22a34.9,34.9,0,0,0,8.9-1.84,19.8,19.8,0,0,0,8-5.17A30.64,30.64,0,0,0,94,107.16a27,27,0,0,1-5.12,10.21A19,19,0,0,1,87,119.31c-.66.56-1.34,1.08-2,1.59a22.2,22.2,0,0,1-4.37,2.22,27.76,27.76,0,0,1-9.17,1.54A44,44,0,0,1,62.28,123.67Z"/><path class="a5f27a47-2f9a-4a80-bf6f-75e4e592b9f3" d="M74.59,112c.94-1.47,1.86-2.93,2.66-4.49a29.3,29.3,0,0,0,2-5,30.17,30.17,0,0,0,1-5.45c.18-1.87.22-3.79.33-5.72a39.9,39.9,0,0,1,.27,5.8,24,24,0,0,1-.89,5.75,21.73,21.73,0,0,1-2.2,5.08A20.42,20.42,0,0,1,74.59,112Z"/><path class="a5f27a47-2f9a-4a80-bf6f-75e4e592b9f3" d="M33.67,129.67a37.65,37.65,0,0,1,5.65-2.89,40,40,0,0,1,5.9-1.89,36.53,36.53,0,0,1,6-.89,29.86,29.86,0,0,1,6.05.21c-1,.07-2,.12-3,.25s-2,.2-3,.34c-2,.3-4,.64-5.94,1.12s-3.93,1-5.88,1.63c-1,.31-1.94.64-2.91,1S34.65,129.33,33.67,129.67Z"/><path class="a5f27a47-2f9a-4a80-bf6f-75e4e592b9f3" d="M48.27,119.68a37.15,37.15,0,0,1,5.17-1.18,51.06,51.06,0,0,1,5.22-.56c1.75-.1,3.5-.14,5.24-.07l2.62.15c.87.1,1.74.18,2.61.33-.87.08-1.74.11-2.61.19l-2.61.14-5.21.3-5.21.32Z"/><path class="a5f27a47-2f9a-4a80-bf6f-75e4e592b9f3" d="M20.06,124.81a37,37,0,0,1,5.41-3.62A24.44,24.44,0,0,1,31.3,119a42.42,42.42,0,0,0,5.85-1.67c.48-.17,1-.37,1.42-.59s1-.44,1.41-.69c1-.43,1.86-1,2.8-1.48-.86.69-1.74,1.35-2.65,2a14,14,0,0,1-1.38.83c-.47.28-.94.52-1.42.75a20.51,20.51,0,0,1-2.92,1.14c-1,.29-2,.53-3,.78a34.28,34.28,0,0,0-5.78,2c-.94.43-1.88.88-2.81,1.39S21,124.34,20.06,124.81Z"/><path class="a5f27a47-2f9a-4a80-bf6f-75e4e592b9f3" d="M25.57,129.8a43.07,43.07,0,0,1,4.64-3.34,46.25,46.25,0,0,1,4.88-2.64,44.81,44.81,0,0,1,5.06-2c.85-.27,1.71-.51,2.57-.75s1.72-.43,2.59-.59c-1.66.77-3.34,1.41-5,2.12s-3.32,1.41-5,2.18-3.28,1.57-4.91,2.39S27.2,128.94,25.57,129.8Z"/><path class="a5f27a47-2f9a-4a80-bf6f-75e4e592b9f3" d="M29.3,135.29A44.32,44.32,0,0,1,44.17,129,35.07,35.07,0,0,1,52,128.2a28.6,28.6,0,0,1,7.77,1.2,56.47,56.47,0,0,0-15.41,1.11A97.32,97.32,0,0,0,29.3,135.29Z"/><path class="a5f27a47-2f9a-4a80-bf6f-75e4e592b9f3" d="M78.17,135.69c1.89.12,3.77.25,5.64.24a34.87,34.87,0,0,0,5.58-.51,29.41,29.41,0,0,0,5.46-1.57,57,57,0,0,0,5.3-2.55c-.81.65-1.65,1.25-2.49,1.82s-1.74,1-2.62,1.49a20.69,20.69,0,0,1-5.55,1.84,22.71,22.71,0,0,1-5.7.28A28.66,28.66,0,0,1,78.17,135.69Z"/><path class="a5f27a47-2f9a-4a80-bf6f-75e4e592b9f3" d="M93.44,128.8c1.71-1.16,3.45-2.1,5.18-3.08l2.61-1.44a29,29,0,0,0,2.57-1.57,10.24,10.24,0,0,1-2.3,2.3,21.78,21.78,0,0,1-2.58,1.67A19.57,19.57,0,0,1,93.44,128.8Z"/><path class="a5f27a47-2f9a-4a80-bf6f-75e4e592b9f3" d="M77.8,126a33,33,0,0,0,3.83-1.26,37.32,37.32,0,0,0,3.71-1.7,32.17,32.17,0,0,0,3.56-2.16,26.64,26.64,0,0,0,3.35-2.76A17.39,17.39,0,0,1,85.62,124,15.64,15.64,0,0,1,77.8,126Z"/><path class="a5f27a47-2f9a-4a80-bf6f-75e4e592b9f3" d="M71.39,119.11c1.26-.72,2.51-1.36,3.73-2.08a24.26,24.26,0,0,0,3.46-2.47,19.41,19.41,0,0,0,3-3.28,33.88,33.88,0,0,0,2.53-4.15,16.8,16.8,0,0,1-1.84,5,14.13,14.13,0,0,1-3.08,3.79,13.37,13.37,0,0,1-3.78,2.3A13.12,13.12,0,0,1,71.39,119.11Z"/><path class="a5f27a47-2f9a-4a80-bf6f-75e4e592b9f3" d="M47.85,115.42A52.49,52.49,0,0,1,55,111.1a47.06,47.06,0,0,0,7-4.31,15.1,15.1,0,0,0,5.16-7.06,26.57,26.57,0,0,0,1-10.08,30.24,30.24,0,0,1,.54,5.25,19.42,19.42,0,0,1-.71,5.31,15.21,15.21,0,0,1-2.21,4.6,16.66,16.66,0,0,1-3.2,3.33,33,33,0,0,1-7.3,4.1C52.82,113.34,50.32,114.26,47.85,115.42Z"/><path class="a5f27a47-2f9a-4a80-bf6f-75e4e592b9f3" d="M65.43,88.06a29.22,29.22,0,0,1,.75,4.72,19.59,19.59,0,0,1-.25,4.89,13.34,13.34,0,0,1-1.65,4.4,10.5,10.5,0,0,1-2.8,3.06,21.21,21.21,0,0,0,2.31-3.55,15.62,15.62,0,0,0,1.39-4.17A40.87,40.87,0,0,0,65.43,88.06Z"/><path class="a5f27a47-2f9a-4a80-bf6f-75e4e592b9f3" d="M72.66,97.54a7.77,7.77,0,0,1,0,3.22,12.27,12.27,0,0,1-1,3A10.23,10.23,0,0,1,70,106.14a4.86,4.86,0,0,1-2.12,1.49,14.34,14.34,0,0,0,1.71-2.08,20,20,0,0,0,1.38-2.4,20.66,20.66,0,0,0,1.07-2.65A13.62,13.62,0,0,0,72.66,97.54Z"/><path class="f3654a8e-1f06-4868-a1ca-6052971982bb" d="M76.78,64.16A80,80,0,0,1,81.92,75,51.6,51.6,0,0,1,85,87.3a32.42,32.42,0,0,1-1.11,12.85c-.31,1-.73,1.94-1.09,2.91s-.9,1.81-1.37,2.69-1.05,1.63-1.6,2.42-1.17,1.47-1.76,2.19c.53-.8,1.07-1.6,1.61-2.38s1-1.69,1.45-2.54.84-1.79,1.24-2.7.7-1.9,1-2.89a32.66,32.66,0,0,0,.89-12.4,54.17,54.17,0,0,0-2.85-12.07c-.3-1-.68-1.92-1-2.87l-.55-1.42L79.2,69.7C78.46,67.8,77.59,66,76.78,64.16Z"/><path class="f3654a8e-1f06-4868-a1ca-6052971982bb" d="M94.06,115.55a47.06,47.06,0,0,0,6.3-14.11,51.45,51.45,0,0,0,1.35-16.21,76,76,0,0,0-2.87-16c-.71-2.59-1.57-5.11-2.47-7.59-.47-1.23-.91-2.49-1.4-3.71l-1.5-3.64A95,95,0,0,1,99.4,69a72.58,72.58,0,0,1,3.08,16.19,50.5,50.5,0,0,1-1.56,16.57c-.42,1.28-.82,2.58-1.28,3.84s-1,2.44-1.58,3.61-1.23,2.25-1.88,3.33Z"/><path class="f3654a8e-1f06-4868-a1ca-6052971982bb" d="M88,72.81a32.49,32.49,0,0,1,1.86,4.8,40.88,40.88,0,0,1,1.76,10.57,29.48,29.48,0,0,1-.24,5.4c0-1.8-.19-3.57-.36-5.33s-.4-3.5-.7-5.23-.62-3.44-1-5.13S88.45,74.51,88,72.81Z"/><path class="f3654a8e-1f06-4868-a1ca-6052971982bb" d="M56,61.63A40.52,40.52,0,0,1,63.26,69a43.37,43.37,0,0,1,5.4,9.85,41.59,41.59,0,0,1,2.61,11.71,34.73,34.73,0,0,1-.13,6.12,22.75,22.75,0,0,1-1.51,5.74,28.84,28.84,0,0,0,1-11.78A42.38,42.38,0,0,0,68,79.27a46.4,46.4,0,0,0-5.14-9.76l-1.59-2.13c-.51-.74-1.12-1.33-1.68-2C58.47,64,57.2,62.9,56,61.63Z"/><path class="f3654a8e-1f06-4868-a1ca-6052971982bb" d="M106.28,120.48a27.93,27.93,0,0,0,7.66-9A34.74,34.74,0,0,0,117.61,99a66.23,66.23,0,0,0,.06-13.65c-.19-2.28-.46-4.55-.79-6.81s-.69-4.51-1.06-6.76c.54,2.19,1,4.41,1.43,6.65s.75,4.52,1,6.81a63.5,63.5,0,0,1,.12,13.92,34.43,34.43,0,0,1-4,12.87,25,25,0,0,1-3.7,4.92A23.84,23.84,0,0,1,106.28,120.48Z"/><path class="f3654a8e-1f06-4868-a1ca-6052971982bb" d="M107.08,82.53A20.09,20.09,0,0,1,108,89a25.14,25.14,0,0,1-.93,6.46c0-1.11,0-2.19.07-3.27s.07-2.14.08-3.21C107.27,86.84,107.16,84.73,107.08,82.53Z"/><path class="f3654a8e-1f06-4868-a1ca-6052971982bb" d="M93.67,46.71,96,51c.75,1.45,1.49,2.91,2.22,4.4A79.67,79.67,0,0,1,102,64.74a61.49,61.49,0,0,1,2.45,10.14c.15.87.24,1.75.34,2.63s.2,1.75.24,2.64c.12,1.77.14,3.54.13,5.31a93.49,93.49,0,0,0-1.29-10.4,76.45,76.45,0,0,0-2.58-9.9c-1.06-3.2-2.33-6.27-3.65-9.31S94.93,49.82,93.67,46.71Z"/><path class="f3654a8e-1f06-4868-a1ca-6052971982bb" d="M27.9,65.49a22.15,22.15,0,0,1,7-3.12,12,12,0,0,1,7.43.55,16,16,0,0,1,6.33,5.24,34.09,34.09,0,0,1,4.37,8l-1.1-2c-.38-.64-.76-1.29-1.15-1.91a31.75,31.75,0,0,0-2.53-3.51,16.62,16.62,0,0,0-6.15-4.82A12.78,12.78,0,0,0,35,63.16a16.26,16.26,0,0,0-1.79.37,12.61,12.61,0,0,0-1.78.55C30.22,64.41,29.09,65,27.9,65.49Z"/><path class="f3654a8e-1f06-4868-a1ca-6052971982bb" d="M46.88,59.63A14.47,14.47,0,0,1,53.36,63a28,28,0,0,1,5.31,6.12,32.31,32.31,0,0,1,3.75,8c.23.73.41,1.48.61,2.22s.29,1.52.44,2.28.14,1.56.21,2.33,0,1.57,0,2.34c-.08-.78-.12-1.55-.19-2.31s-.23-1.51-.38-2.24-.33-1.47-.54-2.19-.43-1.41-.68-2.1a37.63,37.63,0,0,0-3.79-7.59A34.5,34.5,0,0,0,53,63.68a21.56,21.56,0,0,0-2.94-2.36c-.5-.37-1.05-.63-1.57-1S47.43,59.89,46.88,59.63Z"/><path class="f3654a8e-1f06-4868-a1ca-6052971982bb" d="M77.47,71.75a44.69,44.69,0,0,1,2.75,5.74,36.88,36.88,0,0,1,1.88,6.39,31.76,31.76,0,0,1,.63,6.83c0,.58,0,1.15-.08,1.72s-.08,1.14-.17,1.7a31.75,31.75,0,0,1-.63,3.31,47.34,47.34,0,0,0,.28-6.72,40.94,40.94,0,0,0-.78-6.57,53.19,53.19,0,0,0-1.67-6.31C79,75.78,78.23,73.78,77.47,71.75Z"/><path class="f3654a8e-1f06-4868-a1ca-6052971982bb" d="M128.24,78.14c.25,1.38.52,2.77.73,4.17s.36,2.83.43,4.26a50.54,50.54,0,0,1-.22,8.61,42.7,42.7,0,0,1-5,15.81,40.4,40.4,0,0,1-9.62,11.38,50.92,50.92,0,0,1-11.66,7c1.94-1.17,3.94-2.16,5.81-3.52a31.18,31.18,0,0,0,2.81-2l1.37-1.07a14.18,14.18,0,0,0,1.35-1.13,41.6,41.6,0,0,0,9.32-11.33,42.25,42.25,0,0,0,5-15.31A58.48,58.48,0,0,0,128.24,78.14Z"/><path class="b992d264-15d5-46cf-a1d1-d5baca3652d9" d="M72.81,130.87c26.07,2.59,47.68-10,51.7-46.21L95.31,63.09s22.94,72.44-42.17,61.65Z"/><ellipse class="e5c7084d-1819-4318-a8d9-4ef5eb44c06e" cx="74.39" cy="87.43" rx="36.2" ry="36"/><ellipse class="ff9e7b24-ed0d-4f08-a8d0-200ec5dfc4dc" cx="74.89" cy="87.93" rx="31.67" ry="31.5"/><path class="b571b1ec-70a9-4dbd-8d59-ef57ff32256b" d="M91.48,60.79a30.77,30.77,0,0,1,4.9,16.7,31.21,31.21,0,0,1-47.49,26.43A31.12,31.12,0,1,0,91.48,60.79Z"/><path class="f9a252ff-1520-4a28-bee3-48871d5125c5" d="M49.45,90.09A27.55,27.55,0,0,1,98.79,73.41,27.55,27.55,0,0,0,47.4,87.05a27.21,27.21,0,0,0,5.7,16.69A27.22,27.22,0,0,1,49.45,90.09Z"/><path class="af9d83d6-7a72-4f9e-8214-a75d3c0c624a" d="M77.41,67.43v3.95A6.64,6.64,0,0,1,80.74,73a11.94,11.94,0,0,1,2.46,3.64l-3.36,2.2q-1.52-3.23-4-3.22a3.33,3.33,0,0,0-2.51,1,3.63,3.63,0,0,0-1,2.62,3.52,3.52,0,0,0,.81,2.38,11.49,11.49,0,0,0,3.2,2.19,31.39,31.39,0,0,1,3.45,2.09,9.61,9.61,0,0,1,2.05,1.88,9.27,9.27,0,0,1,1.95,5.94,10.62,10.62,0,0,1-1.76,6.05,8.49,8.49,0,0,1-4.65,3.5v4.17h-3v-4.05a8.6,8.6,0,0,1-5.15-2.72,13.85,13.85,0,0,1-2.62-6.4l3.79-.93a11,11,0,0,0,1.9,4.37,4.37,4.37,0,0,0,6.29-.18,5.26,5.26,0,0,0,1.26-3.65,4.68,4.68,0,0,0-1.06-3.2,9.75,9.75,0,0,0-1.57-1.32,27.14,27.14,0,0,0-2.67-1.6,12.84,12.84,0,0,1-4.39-3.22,8.39,8.39,0,0,1-1.67-5.26,9.08,9.08,0,0,1,.39-2.7A7.9,7.9,0,0,1,70,74.31a7.39,7.39,0,0,1,1.85-1.76,9.13,9.13,0,0,1,2.5-1.17V67.43Z"/><path class="e570d0a3-f5b4-4036-9812-2abdd104b219" d="M156.1,105.2l7.54-5.24A11.14,11.14,0,0,0,167,105a7.19,7.19,0,0,0,4.53,1.62A6,6,0,0,0,176,105.1a6.77,6.77,0,0,0-.12-8.57,10.83,10.83,0,0,0-5-2.43q-6.6-1.69-9.69-5.44t-3.09-10.33q0-7.53,4-12a13.39,13.39,0,0,1,10.53-4.5,13.09,13.09,0,0,1,7.82,2.4,15.87,15.87,0,0,1,5.27,6.85l-7.38,5a9.47,9.47,0,0,0-2.52-3.63,5.69,5.69,0,0,0-3.66-1.12,5.16,5.16,0,0,0-4,1.51,5.34,5.34,0,0,0-1.4,3.8,5.15,5.15,0,0,0,1.38,3.74c.93.94,2.65,1.71,5.19,2.3q6.32,1.52,9.55,5.59t3.22,11q0,7.89-3.79,12.52t-10.84,4.62a15.26,15.26,0,0,1-9.19-3A17.87,17.87,0,0,1,156.1,105.2Z"/><path class="e570d0a3-f5b4-4036-9812-2abdd104b219" d="M224.46,94q0,10.11-4.25,16.31t-12.44,6.21q-8,0-12.07-6.1t-4.12-16V62.7h9V94c0,4,.69,7,2.08,9A6.33,6.33,0,0,0,208.1,106a6.26,6.26,0,0,0,5.35-3c1.37-2,2.05-4.88,2.05-8.68V62.7h9Z"/><path class="e570d0a3-f5b4-4036-9812-2abdd104b219" d="M264.84,115.55H254.78l-5.9-14.3a15,15,0,0,0-2.29-4.13,3.46,3.46,0,0,0-2.67-1.21H241.5v19.64h-8.95V62.7h14.19q7.41,0,10.94,4.09t3.53,10.91a18.61,18.61,0,0,1-2.22,9,11.8,11.8,0,0,1-6.2,5.62v.15a8.49,8.49,0,0,1,2.85,2.71,30.27,30.27,0,0,1,2.8,5.28ZM241.5,71.76v15h3.88a5.61,5.61,0,0,0,4.74-2.16,9.14,9.14,0,0,0,1.67-5.73,7.93,7.93,0,0,0-1.56-5.27,5.76,5.76,0,0,0-4.68-1.85Z"/><path class="e570d0a3-f5b4-4036-9812-2abdd104b219" d="M292.53,72.58h-14V85.29H291.4V95.1H278.51v20.45h-8.95V62.7h23Z"/><path class="e570d0a3-f5b4-4036-9812-2abdd104b219" d="M307.48,115.55h-9V62.7h9Z"/><path class="e570d0a3-f5b4-4036-9812-2abdd104b219" d="M351.72,115.55h-9L326.3,82.93c-.46-1-.85-1.83-1.17-2.56s-.55-1.33-.72-1.82h-.11c0,.93.07,2.11.08,3.53s0,3.1,0,5v28.45H316V62.7h9.64l15.78,31.59c.33.71.66,1.43,1,2.15s.62,1.45.9,2.16h.11c0-.62-.06-1.53-.08-2.75s0-2.72,0-4.51V62.7h8.46Z"/><path class="e570d0a3-f5b4-4036-9812-2abdd104b219" d="M392.88,110.25a23.75,23.75,0,0,1-6.58,4.49,17.67,17.67,0,0,1-7.53,1.73q-9.87,0-15.44-7T357.76,90q0-12.45,5.6-20.31t14.11-7.85a15.7,15.7,0,0,1,9.89,3,18.47,18.47,0,0,1,5.88,8L386,77.62a10,10,0,0,0-3.38-4.38,7.8,7.8,0,0,0-4.43-1.33q-4.71,0-7.81,4.52t-3.09,12.69q0,8.37,3.07,12.79a9.37,9.37,0,0,0,8.05,4.43,9.93,9.93,0,0,0,2.95-.46,7.67,7.67,0,0,0,2.57-1.38V95.91h-8V86h16.91Z"/><path class="e570d0a3-f5b4-4036-9812-2abdd104b219" d="M411.73,105.2l7.54-5.24a11.14,11.14,0,0,0,3.34,5.05,7.19,7.19,0,0,0,4.53,1.62,6,6,0,0,0,4.49-1.53,6.77,6.77,0,0,0-.12-8.57,10.83,10.83,0,0,0-5-2.43q-6.6-1.69-9.69-5.44T413.7,78.33q0-7.53,4-12a13.39,13.39,0,0,1,10.53-4.5,13.09,13.09,0,0,1,7.82,2.4,15.94,15.94,0,0,1,5.27,6.85l-7.38,5a9.47,9.47,0,0,0-2.52-3.63,5.69,5.69,0,0,0-3.66-1.12,5.16,5.16,0,0,0-4,1.51,5.34,5.34,0,0,0-1.4,3.8,5.15,5.15,0,0,0,1.38,3.74c.93.94,2.65,1.71,5.19,2.3q6.31,1.52,9.54,5.59t3.23,11q0,7.89-3.79,12.52t-10.84,4.62a15.24,15.24,0,0,1-9.19-3A17.87,17.87,0,0,1,411.73,105.2Z"/><path class="e570d0a3-f5b4-4036-9812-2abdd104b219" d="M474.62,72.39H464v43.16h-9V72.39H444.35V62.7h30.27Z"/><path class="e570d0a3-f5b4-4036-9812-2abdd104b219" d="M494.89,116.47q-8.59,0-14.11-7.39t-5.52-19.25q0-12.54,5.6-20.28t14.66-7.74q8.57,0,14,7.41t5.39,19.54q0,12.45-5.58,20.08T494.89,116.47Zm.16-10.43a8.62,8.62,0,0,0,7.54-4.4q2.87-4.41,2.86-12.22,0-8.15-2.77-12.68t-7.41-4.53q-4.75,0-7.67,4.66T484.69,89.2q0,7.77,2.91,12.31T495.05,106Z"/><path class="e570d0a3-f5b4-4036-9812-2abdd104b219" d="M555.26,103.65a21.26,21.26,0,0,1-6.5,9.23,15.25,15.25,0,0,1-9.94,3.59A18.16,18.16,0,0,1,524,109.64q-5.57-6.84-5.57-19.37,0-12.94,5.5-20.7t14.29-7.76a15.06,15.06,0,0,1,10.47,3.74A23.87,23.87,0,0,1,555,75.86l-7.93,3.94A12.83,12.83,0,0,0,543.63,74a7.86,7.86,0,0,0-5.25-1.78q-4.61,0-7.57,4.84t-3,12.37q0,7.92,3,12.2a9.65,9.65,0,0,0,8.26,4.28,7.72,7.72,0,0,0,5.05-1.77,11.31,11.31,0,0,0,3.35-5.24Z"/><path class="e570d0a3-f5b4-4036-9812-2abdd104b219" d="M594.54,115.55H583.37L571.78,93.33c-.16-.32-.32-.66-.47-1s-.34-.79-.58-1.31h-.14v24.55h-9V62.7h9V86.32h.14c.13-.32.28-.66.46-1s.39-.81.65-1.33L583,62.7h10.17L579.54,87.61Z"/></g></g></svg>