<svg id="b1e48992-823d-42e7-becd-99278ef5d654" data-name="svg8" xmlns="http://www.w3.org/2000/svg" viewBox="0 0 29.2 30.23"><defs><style>.a3a81a56-ea72-4d35-a8ff-d2ab0b38308d{fill:#005992;}.a3a81a56-ea72-4d35-a8ff-d2ab0b38308d,.aacd2792-4da3-4d4d-944a-8fb6eaba68e0{fill-rule:evenodd;}.aacd2792-4da3-4d4d-944a-8fb6eaba68e0{fill:#d51d4b;}</style></defs><path class="a3a81a56-ea72-4d35-a8ff-d2ab0b38308d" d="M10.32,10.7h8.55v7.81a27.31,27.31,0,0,1,8.94,3.06,15.47,15.47,0,0,0,1.39-6.44A14.88,14.88,0,0,0,14.59,0,14.86,14.86,0,0,0,0,15.13a15.45,15.45,0,0,0,1.38,6.43,27.29,27.29,0,0,1,8.94-3Z"/><path class="aacd2792-4da3-4d4d-944a-8fb6eaba68e0" d="M14.6,30.23A14.47,14.47,0,0,0,26.8,23.4a25.42,25.42,0,0,0-24.42,0A14.46,14.46,0,0,0,14.6,30.23"/></svg>